<?xml version="1.0" encoding="UTF-8" standalone="no"?>
<svg xmlns="http://www.w3.org/2000/svg" height="370" width="600" version="1.1">
  <defs>
    <clipPath id="j" clipPathUnits="userSpaceOnUse">
      <path d="m0 0h841.89v595.276h-841.89v-595.276z"/>
    </clipPath>
    <clipPath id="i" clipPathUnits="userSpaceOnUse">
      <path d="m0 0h841.89v595.276h-841.89v-595.276z"/>
    </clipPath>
    <clipPath id="h" clipPathUnits="userSpaceOnUse">
      <path d="m0 0h841.89v595.276h-841.89v-595.276z"/>
    </clipPath>
    <clipPath id="g" clipPathUnits="userSpaceOnUse">
      <path d="m0 0h841.89v595.276h-841.89v-595.276z"/>
    </clipPath>
    <clipPath id="f" clipPathUnits="userSpaceOnUse">
      <path d="m0 0h841.89v595.276h-841.89v-595.276z"/>
    </clipPath>
    <clipPath id="e" clipPathUnits="userSpaceOnUse">
      <path d="m0 0h841.89v595.276h-841.89v-595.276z"/>
    </clipPath>
    <clipPath id="d" clipPathUnits="userSpaceOnUse">
      <path d="m0 0h841.89v595.276h-841.89v-595.276z"/>
    </clipPath>
    <clipPath id="c" clipPathUnits="userSpaceOnUse">
      <path d="m0 0h841.89v595.276h-841.89v-595.276z"/>
    </clipPath>
    <clipPath id="b" clipPathUnits="userSpaceOnUse">
      <path d="m0 0h841.89v595.276h-841.89v-595.276z"/>
    </clipPath>
    <clipPath id="a" clipPathUnits="userSpaceOnUse">
      <path d="m0 0h841.89v595.276h-841.89v-595.276z"/>
    </clipPath>
  </defs>
  <g transform="matrix(11.106,0,0,-11.106,-1200.9981,4103.1002)">
    <path d="m0 0c-0.206-0.047-0.405-0.074-0.591-0.077l-0.081 0.001c-0.533 0.025-0.937 0.176-1.234 0.392l-0.003 0.002c-0.077-0.139-0.293-0.628-0.677-0.864-0.383 0.236-0.6 0.724-0.676 0.864l-0.004-0.003c-0.297-0.215-0.703-0.366-1.233-0.391-0.016 0-0.031 0-0.048-0.001h-0.033c-0.969 0.012-2.226 0.69-3.33 1.388-1.214 0.768-2.375 1.442-3.5 1.442-0.36 0-0.789-0.119-1.048-0.554-0.394 0.483 0.319 1.255 0.927 1.255h-10.514s-0.142 0.811-0.734 0.811h-0.17v0.361h-3.906s0.019 0.652-0.447 0.73c-0.478 0.08-0.465 0.339-0.465 0.444h-0.506v0.387h-1.214c0.011 0.109 0.115 0.487 0.681 0.497 0.267 0.004 0.386 0 0.492 0.055 0.148 0.076 0.159 0.285 0.159 0.285h25.569 25.57s0.011-0.209 0.159-0.285c0.106-0.055 0.225-0.051 0.492-0.055 0.565-0.01 0.669-0.388 0.681-0.497h-1.213v-0.387h-0.507c-0.001-0.105 0.013-0.364-0.465-0.444-0.466-0.078-0.448-0.73-0.448-0.73h-3.904v-0.361h-0.171c-0.592 0-0.734-0.811-0.734-0.811h-10.504-0.01c0.608 0 1.321-0.772 0.928-1.255-0.26 0.435-0.688 0.554-1.048 0.554-1.127 0-2.288-0.674-3.5-1.442-0.891-0.563-1.882-1.114-2.74-1.311" transform="translate(137.7373,336.7681)" fill="#999999"/>
    <g transform="translate(155.3404,341.0574)">
      <path d="m0 0h0.176m-40.728 0h0.185" stroke="#000" stroke-width=".104" fill="none"/>
    </g>
    <g>
      <g clip-path="url(#j)">
        <g transform="translate(135.7169,339.6909)">
          <path d="m0 0c0-0.328-0.254-0.594-0.565-0.594-0.312 0-0.566 0.266-0.566 0.594 0 0.329 0.254 0.595 0.566 0.595 0.311 0 0.565-0.266 0.565-0.595z" stroke="#000" stroke-width=".122" fill="none"/>
        </g>
        <g transform="translate(126.1995,340.1979)">
          <path d="m0 0h-10.522s-0.143 0.828-0.736 0.828h-0.17v0.368m20.38 0h-24.289s0.019 0.665-0.447 0.744c-0.479 0.081-0.465 0.346-0.465 0.452" stroke="#000" stroke-width=".104" fill="none"/>
        </g>
        <g transform="translate(136.377,338.4228)">
          <path stroke-linejoin="round" d="m0 0c0.087-0.006 0.167 0.056 0.199 0.155 0.054 0.178-0.1 0.329-0.278 0.346-0.307 0.029-0.416-0.22-0.432-0.364-0.021-0.196 0.13-0.617 0.519-0.652 0.584-0.054 0.751 0.472 0.761 0.699 0.033 0.688-0.554 0.895-0.82 0.914-0.333 0.026-1.168-0.14-1.168-1.23 0-0.678 0.548-1.564 1.893-1.626 0.598-0.027 1.877 0.324 2.29 1.112 0.446 0.852 0.313 1.244 0.594 1.543 0.256 0.27 0.837 0.294 1.07 0.75 0.095-0.21 0.293-0.776 0.018-0.963 1.588 1.368 3.276 0.789 3.276 0.789" stroke="#000" stroke-linecap="round" stroke-miterlimit="23" stroke-width=".122" fill="none"/>
        </g>
        <g transform="translate(144.1163,340.2496)">
          <path stroke-linejoin="round" d="m0 0c0.611 0 1.328-0.784 0.932-1.275-0.261 0.442-0.691 0.563-1.053 0.563-1.132 0-2.299-0.684-3.518-1.464-1.109-0.709-2.374-1.398-3.348-1.41m2.099 0.946s0.505 0.724 0.207 1.152c-0.123-0.047-0.207-0.159-0.207-0.159s-0.022 0.311-0.083 0.46c-0.074 0.178-0.313 0.325-0.424 0.465-0.046-0.137-0.215-0.37-0.431-0.539-0.244-0.194-0.323-0.675-0.323-0.675s-0.168 0.26-0.241 0.333c-0.251-0.292-0.366-1.033-0.942-1.235-0.787-0.274-1.134 0.523-1.134 0.523" stroke="#000" stroke-linecap="round" stroke-width=".122" fill="none"/>
        </g>
        <g transform="translate(144.115,340.1979)">
          <path d="m0 0h10.513s0.142 0.823 0.735 0.823h0.171v0.365m-20.382 0h24.29s-0.019 0.661 0.448 0.74c0.478 0.081 0.464 0.343 0.465 0.449m1.04 0.896h-26.243-26.234m26.234 0.345h25.592s0.011-0.212 0.159-0.289c0.106-0.056 0.225-0.051 0.492-0.056 0.566-0.01 0.67-0.392 0.682-0.503h-26.925-26.925c0.011 0.111 0.116 0.493 0.682 0.503 0.267 0.005 0.386 0 0.492 0.056 0.148 0.077 0.159 0.289 0.159 0.289h25.592zm25.711-0.848v-0.393h-25.711-25.71v0.393" stroke="#000" stroke-width=".104" fill="none"/>
        </g>
        <g transform="translate(135.8521,337.096)">
          <path stroke-linejoin="round" d="m0 0c-0.082-0.145-0.312-0.656-0.724-0.901m0.3 1.331c-0.03-0.034-0.287-0.346-0.3-0.692" stroke="#000" stroke-linecap="round" stroke-width=".122" fill="none"/>
        </g>
        <g transform="translate(133.9272,338.4228)">
          <path stroke-linejoin="round" d="m0 0c-0.088-0.006-0.168 0.056-0.2 0.155-0.054 0.178 0.101 0.329 0.279 0.346 0.306 0.029 0.416-0.22 0.431-0.364 0.021-0.196-0.129-0.617-0.519-0.652-0.582-0.054-0.75 0.472-0.761 0.699-0.032 0.688 0.555 0.895 0.821 0.914 0.331 0.026 1.168-0.14 1.168-1.23 0-0.678-0.548-1.564-1.894-1.626-0.598-0.027-1.876 0.324-2.288 1.112-0.448 0.852-0.315 1.244-0.595 1.543-0.256 0.27-0.838 0.294-1.071 0.75-0.095-0.21-0.293-0.776-0.018-0.963-1.588 1.368-3.277 0.789-3.277 0.789" stroke="#000" stroke-linecap="round" stroke-miterlimit="23" stroke-width=".122" fill="none"/>
        </g>
        <g transform="translate(126.1873,340.2496)">
          <path stroke-linejoin="round" d="m0 0c-0.61 0-1.327-0.782-0.931-1.272 0.26 0.441 0.691 0.562 1.052 0.562 1.132 0 2.298-0.684 3.517-1.462 1.109-0.708 2.372-1.396 3.347-1.408m-2.099 0.945s-0.504 0.723-0.207 1.15c0.124-0.047 0.207-0.159 0.207-0.159s0.022 0.311 0.084 0.459c0.073 0.178 0.313 0.324 0.423 0.464 0.046-0.137 0.215-0.369 0.431-0.538 0.245-0.194 0.323-0.673 0.323-0.673s0.168 0.259 0.241 0.332c0.25-0.292 0.366-1.031 0.942-1.233 0.788-0.273 1.133 0.522 1.133 0.522m-0.154-0.868c0.076-0.142 0.294-0.637 0.679-0.876m-0.281 1.293c0.025-0.029 0.269-0.334 0.281-0.672" stroke="#000" stroke-linecap="round" stroke-width=".122" fill="none"/>
        </g>
      </g>
    </g>
    <g transform="translate(114.7882,341.0574)">
      <path d="m0 0h40.728" stroke="#000" stroke-width=".104" fill="none"/>
    </g>
    <g>
      <g clip-path="url(#i)">
        <g transform="translate(135.1518,343.9168)">
          <path d="m0 0c2.062 0 3.751 0.481 5.048 1.103 2.481 1.193 3.433 3.103 3.376 5.871 0 0-0.002 10.952 0 10.978 0.088 0.791 0.591 1.336 0.591 1.336l-0.941 2.523c-1.908-0.201-2.951 1.02-4.014 1.755-1.674 1.158-3.478 1.08-4.06 1.089-0.583-0.009-2.386 0.069-4.061-1.089-1.063-0.735-2.106-1.956-4.013-1.755l-0.94-2.523s0.502-0.545 0.59-1.336c0.002-0.026 0-10.978 0-10.978-0.057-2.768 0.895-4.678 3.377-5.871 1.295-0.622 2.985-1.103 5.047-1.103" fill="#e7e7e7"/>
        </g>
        <g transform="translate(135.1518,343.8651)">
          <path d="m0 0c2.074 0 3.774 0.483 5.077 1.108 2.496 1.198 3.454 3.115 3.397 5.895 0 0-0.002 10.998 0 11.024 0.088 0.794 0.594 1.342 0.594 1.342l-0.946 2.534c-1.92-0.202-2.969 1.024-4.038 1.762-1.684 1.162-3.498 1.084-4.084 1.093-0.586-0.009-2.4 0.069-4.085-1.093-1.069-0.738-2.118-1.964-4.037-1.762l-0.945-2.534s0.505-0.548 0.593-1.342c0.003-0.026 0-11.024 0-11.024-0.057-2.78 0.901-4.697 3.397-5.895 1.303-0.625 3.003-1.108 5.077-1.108z" stroke="#000" stroke-width=".226" fill="none"/>
        </g>
        <g transform="translate(136.5497,358.9279)">
          <path d="m0 0 1.799-2.203h0.554v-0.001 2.979l-0.003 0.007-0.361 0.388v0.848h0.193l1.311 3.96c-0.113 0.041-0.194 0.153-0.194 0.285 0 0.166 0.128 0.301 0.288 0.301 0.157 0 0.287-0.135 0.287-0.301 0-0.132-0.08-0.244-0.194-0.285l1.31-3.96h0.195v-0.848l-0.362-0.388v-0.007-2.979 0.001h0.706v-1.139l-0.453-0.475v-5.083l0.347-0.474v-0.977h0.321v-0.676h0.271v-0.676h-14.827v0.676h0.273v0.676h0.321v0.977l0.346 0.474v5.083l-0.452 0.475v1.139h0.704v-0.001 2.979 0.007l-0.361 0.388v0.848h0.195l1.309 3.96c-0.112 0.041-0.194 0.153-0.194 0.285 0 0.166 0.13 0.301 0.289 0.301s0.287-0.135 0.287-0.301c0-0.132-0.081-0.244-0.193-0.285l1.31-3.96h0.195v-0.848l-0.362-0.388-0.004-0.007v-2.979 0.001h0.554l1.799 2.203h2.796zm-3.375-10.351h3.952v4.355h0.001c-0.072 0.188-0.167 0.363-0.282 0.522l-0.178-0.142c-0.142 0.197-0.318 0.365-0.518 0.494h0.001l0.116 0.199c-0.214 0.138-0.453 0.238-0.708 0.29l-0.043-0.23h-0.728v0.002l-0.043 0.23v-0.002c-0.256-0.052-0.494-0.152-0.708-0.29l-0.001 0.003 0.117-0.202c-0.2-0.13-0.375-0.297-0.517-0.494l-0.18 0.145 0.002-0.003c-0.115-0.159-0.21-0.334-0.281-0.522h-0.001v-4.355" fill="#da121a"/>
        </g>
        <g transform="translate(134.8393,363.1641)">
          <path d="m0 0s-0.107-0.659-0.433-1.099h1.491c-0.326 0.44-0.433 1.099-0.433 1.099h0.001s0.627-0.113 1.047-0.453v1.562c-0.42-0.343-1.047-0.455-1.047-0.455h-0.001s0.107 0.657 0.433 1.097h-1.491c0.326-0.44 0.433-1.097 0.433-1.097s-0.628 0.112-1.048 0.455v-1.562c0.42 0.34 1.048 0.453 1.048 0.453" fill="#fcdd09"/>
        </g>
        <g transform="translate(136.5862,365.5623)">
          <path d="m0 0c0.045 0.125 0.115 0.293 0.203 0.475l0.013 0.029c0.014-0.007 0.029-0.012 0.045-0.012 0.052 0 0.094 0.045 0.094 0.099 0 0.037-0.02 0.069-0.049 0.086l0.02 0.041c0.165 0.308 0.37 0.626 0.59 0.843-0.282 0.058-0.379-0.1-0.547-0.207-0.291 0.24-0.399-0.185-0.254-0.268 0.089-0.05-0.055-0.241-0.224-0.195-0.191 0.05-0.312 0.18-0.267 0.428 0.098 0.029 0.17 0.124 0.17 0.237 0 0.135-0.105 0.245-0.234 0.245-0.13 0-0.234-0.11-0.234-0.245 0-0.079 0.036-0.15 0.09-0.196v0.002c-0.027-0.295-0.161-0.383-0.398-0.345-0.32 0.052-0.232 0.383-0.129 0.357 0.27-0.066 0.3 0.468-0.131 0.418 0.006 0.215-0.152 0.506-0.192 0.52-0.041-0.014-0.199-0.305-0.192-0.52-0.43 0.05-0.402-0.484-0.132-0.418 0.103 0.026 0.191-0.305-0.129-0.357-0.236-0.038-0.371 0.05-0.399 0.345v-0.002c0.057 0.046 0.092 0.117 0.092 0.196 0 0.135-0.106 0.245-0.235 0.245s-0.234-0.11-0.234-0.245c0-0.113 0.073-0.208 0.171-0.237 0.043-0.248-0.076-0.378-0.266-0.428-0.171-0.046-0.314 0.145-0.226 0.195 0.146 0.083 0.036 0.508-0.253 0.268-0.17 0.107-0.267 0.265-0.549 0.207 0.22-0.217 0.426-0.535 0.591-0.843l0.023-0.04c-0.03-0.015-0.052-0.049-0.052-0.087 0-0.054 0.042-0.099 0.095-0.099 0.015 0 0.029 0.005 0.042 0.011l0.017-0.028c0.086-0.182 0.156-0.35 0.202-0.475 0.31-0.139 0.837-0.23 1.434-0.23s1.123 0.091 1.434 0.23" fill="#fcdd09"/>
        </g>
        <g transform="translate(134.835,363.1591)">
          <path stroke-linejoin="round" d="m0 0s-0.108-0.669-0.439-1.115h1.512c-0.331 0.446-0.439 1.115-0.439 1.115v0s0.636-0.115 1.062-0.46v1.586c-0.426-0.349-1.062-0.462-1.062-0.462v0s0.108 0.667 0.439 1.114h-1.512c0.331-0.447 0.439-1.114 0.439-1.114s-0.636 0.113-1.063 0.462v-1.586c0.427 0.345 1.063 0.46 1.063 0.46z" stroke="#000" stroke-linecap="round" stroke-width=".096" fill="none"/>
        </g>
        <g transform="translate(135.1705,365.31)">
          <path stroke-linejoin="round" d="m0 0c-0.611 0-1.149 0.097-1.466 0.244 0.317 0.147 0.856 0.243 1.466 0.243m-1.597 0.088c0.293 0.14 0.898 0.236 1.597 0.236m-1.673-0.065c0.088-0.193 0.159-0.37 0.207-0.502" stroke="#000" stroke-linecap="round" stroke-width=".096" fill="none"/>
        </g>
        <g transform="translate(134.3218,366.3662)">
          <path stroke-linejoin="round" d="m0 0c0-0.059-0.043-0.105-0.096-0.105-0.054 0-0.097 0.046-0.097 0.105 0 0.06 0.043 0.108 0.097 0.108 0.053 0 0.096-0.048 0.096-0.108zm-0.779-0.221c0-0.059-0.043-0.107-0.097-0.107s-0.097 0.048-0.097 0.107c0 0.06 0.043 0.107 0.097 0.107s0.097-0.047 0.097-0.107z" stroke="#000" stroke-linecap="round" stroke-width=".07" fill="none"/>
        </g>
        <g transform="translate(135.1334,365.31)">
          <path stroke-linejoin="round" d="m0 0c0.611 0 1.149 0.097 1.467 0.244-0.318 0.147-0.856 0.243-1.467 0.243m1.596 0.088c-0.292 0.14-0.897 0.236-1.596 0.236m1.674-0.065c-0.09-0.193-0.161-0.37-0.207-0.502" stroke="#000" stroke-linecap="round" stroke-width=".096" fill="none"/>
        </g>
        <g transform="translate(135.995,366.3631)">
          <path stroke-linejoin="round" d="m0 0c0-0.058 0.043-0.104 0.096-0.104 0.052 0 0.095 0.046 0.095 0.104 0 0.06-0.043 0.107-0.095 0.107-0.053 0-0.096-0.047-0.096-0.107zm0.77-0.219c0-0.058 0.042-0.105 0.094-0.105 0.053 0 0.096 0.047 0.096 0.105 0 0.059-0.043 0.106-0.096 0.106-0.052 0-0.094-0.047-0.094-0.106zm-1.53 0.284c0-0.058-0.043-0.105-0.095-0.105-0.053 0-0.096 0.047-0.096 0.105s0.043 0.106 0.096 0.106c0.052 0 0.095-0.048 0.095-0.106z" stroke="#000" stroke-linecap="round" stroke-width=".07" fill="none"/>
        </g>
      </g>
    </g>
    <g transform="translate(135.1518,347.901)">
      <path d="m0 0h-7.433v-0.698h7.433m0 1.395h-7.159v-0.697" stroke="#000" stroke-miterlimit="2" stroke-width=".096" fill="none"/>
    </g>
    <path stroke-linejoin="round" d="m130.161 355.132h-1.502v-0.732h1.502v0.732zm0-0.731h2.964m-2.964-0.733h-1.502v-0.733h1.502v0.733zm2.675 0h-2.675m0-0.733h3.033m-3.033-0.733h-1.502v-0.731h1.502v0.731zm1.503 0h-1.503m0-0.731h3.033m-3.033-0.732h-1.502v-0.733h1.502v0.733zm3.033 0h-3.033m0-0.733h1.503" stroke="#000" stroke-linecap="round" stroke-miterlimit="1" stroke-width=".096" fill="none"/>
    <g transform="translate(128.3315,349.5756)">
      <path stroke-linejoin="round" d="m0 0h3.672" stroke="#000" stroke-miterlimit="1" stroke-width=".096" fill="none"/>
    </g>
    <g transform="translate(128.2071,355.6079)">
      <path stroke-linejoin="round" d="m0 0h6.963" stroke="#000" stroke-linecap="round" stroke-miterlimit="1" stroke-width=".096" fill="none"/>
    </g>
    <g transform="translate(132.0212,348.5547)">
      <path d="m0 0 0.001 1.012-0.391 0.492" stroke="#000" stroke-linecap="square" stroke-miterlimit="2" stroke-width=".096" fill="none"/>
    </g>
    <g transform="translate(128.3128,348.5766)">
      <path d="m0 0v0.986l0.38 0.478" stroke="#000" stroke-miterlimit="2" stroke-width=".096" fill="none"/>
    </g>
    <g>
      <g clip-path="url(#h)">
        <g transform="translate(130.1677,354.0213)">
          <path d="m0 0c-0.192 0-0.346-0.163-0.346-0.362v-1.454h0.691v1.454c0 0.199-0.154 0.362-0.345 0.362"/>
        </g>
        <g transform="translate(130.1677,358.9022)">
          <path d="m0 0c-0.192 0-0.346-0.163-0.346-0.363v-1.139h0.691v1.139c0 0.2-0.154 0.363-0.345 0.363"/>
        </g>
        <g transform="translate(128.5501,360.0757)">
          <path stroke-linejoin="round" d="m0 0h3.235m-3.037 0.855 1.323 3.992c-0.113 0.042-0.195 0.155-0.195 0.288 0 0.167 0.131 0.303 0.292 0.303 0.16 0 0.29-0.136 0.29-0.303 0-0.133-0.082-0.246-0.195-0.288l1.325-3.992" stroke="#000" stroke-linecap="round" stroke-miterlimit="1" stroke-width=".096" fill="none"/>
        </g>
      </g>
    </g>
    <g transform="translate(131.785,360.0894)">
      <path d="m0 0v0.878h-0.695v-0.553h-0.48v0.553h-0.884v-0.553h-0.481v0.553h-0.695v-0.878l0.365-0.401h2.504l0.366 0.401z" stroke="#000" stroke-miterlimit="2" stroke-width=".096" fill="none"/>
    </g>
    <g transform="translate(128.9133,359.7251)">
      <path stroke-linejoin="round" d="m0 0v-2.991m2.491 2.991v-2.991m-1.245 2.998v-0.67m0-2.01v-0.318m-0.742 0.989v-0.671m1.483 0.671v-0.671m-1.483 2.01v-0.67m1.483 0.67v-0.67m-1.987 0.67h2.491m-2.491-0.67h2.491m-2.491-0.669h2.491m-2.491-0.671h2.491m1.79-8.497v4.372m-4.535-1.457v-0.728m0.76 0.728v-0.728m1.484 0.728v-0.728m-2.244 2.185v-0.729m0.76 0.729v-0.729m1.484 0.729v-0.729m-2.244 2.188v-0.729m0.76 0.729v-0.729m1.484 0.729v-0.729" stroke="#000" stroke-linecap="round" stroke-miterlimit="1" stroke-width=".096" fill="none"/>
    </g>
    <g>
      <g clip-path="url(#g)">
        <g transform="translate(129.8584,363.1618)">
          <path stroke-linejoin="round" d="m0 0v-0.355s0-0.318 0.3-0.318c0.299 0 0.299 0.318 0.299 0.318v0.352m0 0.003v-0.355s0-0.318 0.299-0.318c0.139 0 0.214 0.07 0.253 0.143m-1.703 0c0.04-0.073 0.114-0.143 0.253-0.143 0.299 0 0.299 0.318 0.299 0.318v0.352m0-1.339v-0.355s0-0.32 0.3-0.32c0.299 0 0.299 0.32 0.299 0.32v0.351m0 0.004v-0.355s0-0.32 0.299-0.32c0.298 0 0.298 0.32 0.298 0.32v0.351m0 0.004v-0.355s0-0.32 0.3-0.32c0.056 0 0.1 0.012 0.137 0.029m-2.232 0.646v-0.355s0-0.32 0.3-0.32c0.299 0 0.299 0.32 0.299 0.32v0.351m4.699-3.503v-0.355s0-0.317 0.3-0.317c0.299 0 0.299 0.317 0.299 0.317v0.352m-1.197 0.003v-0.355s0-0.317 0.299-0.317 0.299 0.317 0.299 0.317v0.352m-1.196 0.003v-0.355s0-0.317 0.299-0.317 0.299 0.317 0.299 0.317v0.352m-1.144-0.541c0.041-0.068 0.116-0.128 0.247-0.128 0.299 0 0.299 0.317 0.299 0.317v0.352m1.795 0.003v-0.355s0-0.317 0.299-0.317c0.3 0 0.3 0.317 0.3 0.317v0.352m0 0.003v-0.355s0-0.317 0.299-0.317 0.299 0.317 0.299 0.317v0.352m0 0.003v-0.355s0-0.317 0.3-0.317c0.299 0 0.299 0.317 0.299 0.317v0.352m0 0.003v-0.355s0-0.317 0.299-0.317c0.132 0 0.205 0.059 0.246 0.128m-2.64-0.128v-0.357s0-0.317 0.299-0.317 0.299 0.317 0.299 0.317v0.353m-1.197 0.004v-0.357s0-0.317 0.299-0.317c0.3 0 0.3 0.317 0.3 0.317v0.353m-1.197 0.004v-0.357s0-0.317 0.299-0.317 0.299 0.317 0.299 0.317v0.353m-1.196 0.004v-0.357s0-0.317 0.299-0.317 0.299 0.317 0.299 0.317v0.353m-1.197-0.302v-0.051s0-0.317 0.299-0.317c0.3 0 0.3 0.317 0.3 0.317v0.353m-0.901-0.67h0.003c0.299 0 0.299 0.317 0.299 0.317v0.051m2.992 0.306v-0.357s0-0.317 0.3-0.317c0.299 0 0.299 0.317 0.299 0.317v0.353m0 0.004v-0.357s0-0.317 0.299-0.317c0.3 0 0.3 0.317 0.3 0.317v0.353m0 0.004v-0.357s0-0.317 0.299-0.317 0.299 0.317 0.299 0.317v0.353m-2.394 1.285v-0.292s0-0.317 0.299-0.317 0.299 0.317 0.299 0.317v0.288m-1.197 0.004v-0.292s0-0.317 0.299-0.317c0.3 0 0.3 0.317 0.3 0.317v0.288m-1.197-0.112v-0.176s0-0.317 0.299-0.317 0.299 0.317 0.299 0.317v0.288m-0.99-0.593c0.027-0.008 0.058-0.012 0.093-0.012 0.299 0 0.299 0.317 0.299 0.317v0.176m1.795 0.116v-0.292s0-0.317 0.3-0.317c0.299 0 0.299 0.317 0.299 0.317v0.288m0 0.004v-0.292s0-0.317 0.299-0.317c0.3 0 0.3 0.317 0.3 0.317v0.176m0 0v-0.176s0-0.317 0.299-0.317c0.035 0 0.066 0.004 0.093 0.012m0.206-0.684v-0.357s0-0.317 0.3-0.317 0.3 0.317 0.3 0.317v0.051m0 0v-0.051s0-0.317 0.298-0.317h0.001m-9.326 4.207c0.036-0.017 0.081-0.029 0.136-0.029 0.299 0 0.299 0.32 0.299 0.32v0.351m0.3 0.673v-0.356s0-0.317 0.299-0.317c0.3 0 0.3 0.317 0.3 0.317v0.353m0 0.003v-0.356s0-0.317 0.299-0.317 0.299 0.317 0.299 0.317v0.353m-1.191 0.934c0.017-0.091 0.076-0.258 0.293-0.258 0.3 0 0.3 0.319 0.3 0.319v0.11m0-0.001v-0.109s0-0.319 0.299-0.319c0.216 0 0.277 0.167 0.293 0.258m-1.691-1.533c0.045-0.041 0.109-0.071 0.2-0.071 0.3 0 0.3 0.317 0.3 0.317v0.353m1.197 0.003v-0.356s0-0.317 0.298-0.317c0.093 0 0.157 0.03 0.201 0.071" stroke="#000" stroke-linecap="round" stroke-miterlimit="1" stroke-width=".07" fill="none"/>
        </g>
      </g>
    </g>
    <g transform="translate(129.6143,363.5955)">
      <path stroke-linejoin="round" d="m0 0h1.107" stroke="#000" stroke-linecap="round" stroke-miterlimit="1" stroke-width=".096" fill="none"/>
    </g>
    <g transform="translate(138.3615,356.7095)">
      <path d="m0 0-1.806 2.24h-2.808l-1.806-2.24" stroke="#000" stroke-miterlimit="2" stroke-width=".096" fill="none"/>
    </g>
    <g transform="translate(131.6469,352.208)">
      <path stroke-linejoin="round" d="m0 0h1.526m-0.615 0v-0.73m-0.315 0v-0.73m0-0.732v-0.73m0.315 1.462v-0.732m0-0.73v-0.731m0.615 0.731h-1.179m-0.347 0.73h1.526m-0.93 2.923v-0.731m0 2.194v-0.731m2.917 1.461h-5.011m2.935-0.73v0.73m-1.437 0v-5.116m5.499 2.923v-4.384" stroke="#000" stroke-linecap="round" stroke-miterlimit="1" stroke-width=".096" fill="none"/>
    </g>
    <g>
      <g clip-path="url(#f)">
        <g transform="translate(135.039,366.4186)">
          <path stroke-linejoin="round" d="m0 0c0-0.062 0.047-0.114 0.107-0.114s0.108 0.052 0.108 0.114c0 0.064-0.048 0.115-0.108 0.115s-0.107-0.051-0.107-0.115z" stroke="#000" stroke-linecap="round" stroke-width=".07" fill="none"/>
        </g>
      </g>
    </g>
    <g transform="translate(135.1275,347.901)">
      <path d="m0 0h7.451v-0.698h-7.451m0 1.395h7.177v-0.697" stroke="#000" stroke-linecap="square" stroke-miterlimit="2" stroke-width=".096" fill="none"/>
    </g>
    <path stroke-linejoin="round" d="m140.136 355.132h1.505v-0.732h-1.505v0.732zm0-0.731h-2.962m2.962-0.733h1.505v-0.733h-1.505v0.733zm-2.674 0h2.674m0-0.733h-3.033m3.033-0.733h1.505v-0.731h-1.505v0.731zm-1.501 0h1.501m0-0.731h-3.033m3.033-0.732h1.505v-0.733h-1.505v0.733zm-3.033 0h3.033m0-0.733h-1.501" stroke="#000" stroke-linecap="round" stroke-miterlimit="1" stroke-width=".096" fill="none"/>
    <g transform="translate(141.9836,349.5318)">
      <path d="m0 0h-3.682m3.789 6.069h-6.944m6.492-0.478 0.452 0.478v1.146h-0.833v-0.637h-0.611v0.637h-0.839v-0.637h-0.61v0.637h-0.841v-0.637h-0.61v0.637h-0.84v-0.637h-0.61v0.637h-0.84v-0.637h-0.61v0.637h-0.84v-0.637h-0.61v0.637h-0.84v-0.637h-0.611v0.637h-0.839v-0.637h-0.609v0.637h-0.841v-0.637h-0.61v0.637h-0.839v-1.146l0.453-0.478" stroke="#000" stroke-miterlimit="2" stroke-width=".096" fill="none"/>
    </g>
    <g transform="translate(138.2754,348.5547)">
      <path stroke-linejoin="round" d="m0 0v1.007h-0.001l0.385 0.488" stroke="#000" stroke-linecap="round" stroke-miterlimit="1" stroke-width=".096" fill="none"/>
    </g>
    <g transform="translate(141.9852,348.5547)">
      <path d="m0 0v1.012l-0.39 0.492" stroke="#000" stroke-linecap="square" stroke-miterlimit="2" stroke-width=".096" fill="none"/>
    </g>
    <g>
      <g clip-path="url(#e)">
        <g transform="translate(140.1292,354.0213)">
          <path d="m0 0c0.192 0 0.348-0.163 0.348-0.362v-1.454h-0.692v1.454c0 0.199 0.154 0.362 0.344 0.362"/>
        </g>
        <g transform="translate(140.1292,358.9022)">
          <path d="m0 0c0.192 0 0.348-0.163 0.348-0.363v-1.139h-0.692v1.139c0 0.2 0.154 0.363 0.344 0.363"/>
        </g>
      </g>
    </g>
    <g transform="translate(141.7478,360.1195)">
      <path stroke-linejoin="round" d="m0 0h-3.235" stroke="#000" stroke-linecap="round" stroke-miterlimit="1" stroke-width=".096" fill="none"/>
    </g>
    <g>
      <g clip-path="url(#d)">
        <g transform="translate(141.5532,360.9236)">
          <path stroke-linejoin="round" d="m0 0-1.328 3.999c0.115 0.041 0.196 0.154 0.196 0.288 0 0.167-0.13 0.303-0.292 0.303-0.16 0-0.291-0.136-0.291-0.303 0-0.134 0.082-0.247 0.197-0.288l-1.326-3.999" stroke="#000" stroke-linecap="round" stroke-miterlimit="2" stroke-width=".096" fill="none"/>
        </g>
      </g>
    </g>
    <g transform="translate(138.513,360.0894)">
      <path d="m0 0v0.878h0.695v-0.553h0.481v0.553h0.882v-0.553h0.482v0.553h0.695v-0.878l-0.366-0.401h-2.504l-0.365 0.401z" stroke="#000" stroke-miterlimit="2" stroke-width=".096" fill="none"/>
    </g>
    <g transform="translate(141.384,359.7251)">
      <path stroke-linejoin="round" d="m0 0v-2.991m-2.49 2.991v-2.991m1.244 2.998v-0.67m0-2.01v-0.318m0.743 0.989v-0.671m-1.484 0.671v-0.671m1.484 2.01v-0.67m-1.484 0.67v-0.67m1.987 0.67h-2.49m2.49-0.67h-2.49m2.49-0.669h-2.49m2.49-0.671h-2.49m-1.791-8.497v4.372m4.537-1.457v-0.728m-0.761 0.728v-0.728m-1.484 0.728v-0.728m2.245 2.185v-0.729m-0.761 0.729v-0.729m-1.484 0.729v-0.729m2.245 2.188v-0.729m-0.761 0.729v-0.729m-1.484 0.729v-0.729" stroke="#000" stroke-linecap="round" stroke-miterlimit="1" stroke-width=".096" fill="none"/>
    </g>
    <g>
      <g clip-path="url(#c)">
        <g transform="translate(140.4313,363.1583)">
          <path stroke-linejoin="round" d="m0 0v-0.358s0-0.32-0.302-0.32c-0.301 0-0.301 0.32-0.301 0.32v0.355m0 0.003v-0.358s0-0.32-0.301-0.32c-0.14 0-0.216 0.071-0.255 0.143m1.716 0c-0.04-0.072-0.115-0.143-0.255-0.143-0.302 0-0.302 0.32-0.302 0.32v0.355m0-1.35v-0.358s0-0.322-0.302-0.322c-0.301 0-0.301 0.322-0.301 0.322v0.354m0 0.004v-0.358s0-0.322-0.301-0.322c-0.302 0-0.302 0.322-0.302 0.322v0.354m0 0.004v-0.358s0-0.322-0.301-0.322c-0.056 0-0.101 0.012-0.137 0.029m2.247 0.651v-0.358s0-0.322-0.301-0.322c-0.302 0-0.302 0.322-0.302 0.322v0.354m1.043-0.647c-0.038-0.017-0.083-0.029-0.138-0.029-0.302 0-0.302 0.322-0.302 0.322v0.354m-0.301 0.679v-0.359s0-0.32-0.302-0.32-0.302 0.32-0.302 0.32v0.355m0 0.004v-0.359s0-0.32-0.301-0.32-0.301 0.32-0.301 0.32v0.355m1.2 0.942c-0.017-0.092-0.077-0.26-0.296-0.26-0.302 0-0.302 0.321-0.302 0.321v0.111m0-0.001v-0.11s0-0.321-0.301-0.321c-0.218 0-0.277 0.168-0.295 0.26m1.701-1.545c-0.043-0.042-0.107-0.072-0.2-0.072-0.301 0-0.301 0.32-0.301 0.32v0.355m-1.206 0.004v-0.359s0-0.32-0.302-0.32c-0.091 0-0.157 0.03-0.201 0.072" stroke="#000" stroke-linecap="round" stroke-miterlimit="1" stroke-width=".07" fill="none"/>
        </g>
      </g>
    </g>
    <g transform="translate(140.6837,363.5955)">
      <path stroke-linejoin="round" d="m0 0h-1.075m-0.959-11.401h-1.527m0.615 0v-0.727m0.315 0v-0.728m0-0.729v-0.728m-0.315 1.457v-0.729m0-0.728v-0.728m-0.615 0.728h1.178m0.349 0.728h-1.527m0.93 2.912v-0.728m0 2.186v-0.729m-2.915 1.456h5.008m-2.935-0.727v0.727m1.439 0v-5.097m-5.497 2.912v-4.368" stroke="#000" stroke-linecap="round" stroke-miterlimit="1" stroke-width=".096" fill="none"/>
    </g>
    <g>
      <g clip-path="url(#b)">
        <g transform="translate(138.3784,359.6414)">
          <path d="m0 0c-0.003 0.003-0.006 0.004-0.008 0.006v0.01c0.019 0.357-0.242 0.661-0.582 0.68-0.265 0.015-0.5-0.15-0.599-0.392l-0.127 0.086 0.033 0.055c0.07 0.114 0.039 0.267-0.069 0.341-0.09 0.061-0.206 0.049-0.283-0.02-0.013 0.02-0.028 0.038-0.048 0.05-0.063 0.044-0.15 0.031-0.219-0.026l-4.149 2.827c-0.098 0.067-0.229 0.039-0.292-0.064-0.062-0.102-0.035-0.239 0.062-0.305l0.129-0.088-0.302-0.485c-0.006-0.01-0.004-0.023 0.005-0.029l0.198-0.135c0.008-0.007 0.012-0.02 0.006-0.029l-0.094-0.152c-0.007-0.01-0.019-0.012-0.029-0.006l-0.197 0.135c-0.009 0.005-0.022 0.003-0.028-0.007l-0.172-0.276c-0.006-0.01-0.003-0.024 0.006-0.03l0.482-0.328c0.01-0.007 0.022-0.005 0.028 0.006l0.288 0.464c0.007 0.009 0.018 0.013 0.028 0.006l0.144-0.098c0.009-0.008 0.011-0.02 0.006-0.03l-0.288-0.463c-0.006-0.011-0.003-0.024 0.007-0.03l0.481-0.328c0.01-0.007 0.023-0.003 0.029 0.006l0.171 0.277c0.007 0.009 0.003 0.022-0.005 0.029l-0.198 0.135c-0.009 0.005-0.012 0.019-0.006 0.03l0.093 0.15c0.007 0.01 0.019 0.012 0.029 0.005l0.197-0.134c0.009-0.006 0.022-0.004 0.028 0.006l0.302 0.487 2.811-1.916c-0.021-0.089 0.002-0.178 0.066-0.221 0.019-0.014 0.04-0.022 0.064-0.025-0.029-0.102 0.007-0.217 0.097-0.279 0.108-0.073 0.256-0.041 0.326 0.073l0.032 0.053 0.128-0.087c-0.172-0.192-0.22-0.484-0.099-0.732 0.154-0.317 0.525-0.444 0.829-0.283 0.002 0.003 0.005 0.004 0.009 0.004 0.003-0.001 0.004-0.002 0.008-0.005 0.286-0.195 0.666-0.11 0.852 0.188 0.187 0.3 0.106 0.699-0.18 0.894m-5.804 2.682c-0.006-0.01-0.019-0.013-0.029-0.006l-0.143 0.098c-0.01 0.006-0.011 0.02-0.006 0.029l0.094 0.151c0.006 0.01 0.018 0.013 0.027 0.007l0.146-0.098c0.008-0.006 0.011-0.02 0.004-0.03l-0.093-0.151zm0.575-0.176-0.094-0.151c-0.006-0.01-0.019-0.013-0.028-0.006l-0.145 0.098c-0.009 0.006-0.012 0.02-0.006 0.03l0.094 0.15c0.006 0.01 0.018 0.012 0.027 0.006l0.146-0.099c0.009-0.005 0.011-0.019 0.006-0.028m4.662-3.214c-0.039 0.028-0.069 0.064-0.089 0.106-0.024-0.04-0.058-0.072-0.099-0.095-0.129-0.068-0.284-0.014-0.35 0.119-0.064 0.134-0.014 0.296 0.114 0.365 0.043 0.023 0.087 0.031 0.132 0.028-0.02 0.041-0.031 0.089-0.029 0.138 0.009 0.149 0.131 0.266 0.273 0.257s0.252-0.136 0.246-0.286c-0.003-0.048-0.019-0.093-0.043-0.133 0.044-0.002 0.088-0.016 0.128-0.043 0.12-0.082 0.153-0.25 0.076-0.376-0.079-0.125-0.239-0.161-0.359-0.08"/>
        </g>
        <g transform="translate(131.7449,358.7477)">
          <path d="m0 0c0.185-0.298 0.567-0.383 0.853-0.189 0.002 0.003 0.005 0.005 0.007 0.006 0.004-0.001 0.006-0.002 0.01-0.005 0.303-0.161 0.674-0.034 0.828 0.284 0.121 0.248 0.073 0.539-0.098 0.732l0.127 0.087 0.032-0.053c0.072-0.114 0.218-0.146 0.328-0.073 0.088 0.062 0.125 0.176 0.096 0.279 0.023 0.003 0.044 0.011 0.063 0.024 0.064 0.043 0.087 0.133 0.066 0.221l2.81 1.917 0.303-0.487c0.006-0.01 0.018-0.012 0.027-0.007l0.198 0.135c0.01 0.007 0.022 0.005 0.028-0.005l0.094-0.151c0.006-0.011 0.003-0.024-0.006-0.029l-0.197-0.135c-0.01-0.007-0.012-0.02-0.006-0.029l0.172-0.278c0.005-0.009 0.019-0.012 0.028-0.006l0.482 0.329c0.009 0.006 0.013 0.019 0.006 0.029l-0.289 0.464c-0.005 0.01-0.002 0.022 0.007 0.03l0.145 0.097c0.009 0.008 0.021 0.004 0.027-0.006l0.289-0.463c0.005-0.011 0.018-0.014 0.027-0.006l0.482 0.328c0.01 0.005 0.013 0.02 0.006 0.03l-0.172 0.276c-0.006 0.01-0.019 0.012-0.028 0.007l-0.197-0.135c-0.01-0.006-0.023-0.004-0.028 0.006l-0.094 0.152c-0.006 0.009-0.003 0.022 0.006 0.029l0.198 0.134c0.008 0.006 0.011 0.019 0.005 0.029l-0.302 0.486 0.127 0.088h0.001c0.097 0.066 0.125 0.202 0.062 0.304-0.063 0.104-0.195 0.132-0.292 0.065h-0.001l-4.147-2.827c-0.07 0.057-0.157 0.069-0.221 0.025-0.02-0.012-0.035-0.029-0.047-0.049-0.078 0.069-0.193 0.081-0.281 0.02-0.11-0.074-0.141-0.228-0.07-0.341l0.032-0.055-0.126-0.086c-0.099 0.242-0.334 0.407-0.6 0.391-0.339-0.018-0.6-0.322-0.582-0.679 0.001-0.004 0.001-0.007 0.001-0.01-0.004-0.002-0.006-0.004-0.009-0.006-0.285-0.195-0.366-0.594-0.18-0.894m5.891 3.727c-0.007 0.01-0.004 0.024 0.005 0.03l0.144 0.097c0.011 0.006 0.022 0.004 0.029-0.006l0.094-0.151c0.006-0.009 0.003-0.023-0.007-0.029l-0.144-0.098c-0.009-0.007-0.022-0.004-0.027 0.006l-0.094 0.151zm-0.476-0.299 0.145 0.099c0.01 0.006 0.021 0.003 0.028-0.007l0.093-0.15c0.007-0.009 0.004-0.023-0.005-0.029l-0.145-0.098c-0.009-0.007-0.021-0.004-0.028 0.006l-0.093 0.151c-0.006 0.009-0.004 0.023 0.005 0.028m-5.026-3.163c-0.078 0.127-0.044 0.295 0.076 0.377 0.039 0.026 0.083 0.04 0.127 0.043-0.023 0.04-0.039 0.085-0.042 0.133-0.007 0.15 0.103 0.276 0.246 0.285 0.142 0.009 0.264-0.107 0.272-0.256 0.001-0.049-0.008-0.097-0.028-0.138 0.044 0.003 0.089-0.005 0.13-0.029 0.129-0.068 0.18-0.23 0.115-0.364-0.066-0.134-0.222-0.187-0.349-0.119-0.042 0.023-0.076 0.055-0.099 0.095-0.02-0.043-0.05-0.078-0.089-0.106-0.121-0.081-0.282-0.045-0.359 0.079"/>
        </g>
        <g transform="translate(136.9261,366.2586)">
          <path stroke-linejoin="round" d="m0 0c0.166 0.316 0.373 0.643 0.595 0.866-0.284 0.06-0.382-0.103-0.551-0.213-0.294 0.247-0.403-0.19-0.257-0.275 0.09-0.051-0.055-0.247-0.226-0.201-0.192 0.052-0.314 0.185-0.269 0.44 0.099 0.03 0.172 0.128 0.172 0.244 0 0.138-0.106 0.251-0.236 0.251-0.131 0-0.236-0.113-0.236-0.251 0-0.081 0.036-0.154 0.091-0.201v0.001c-0.027-0.302-0.162-0.393-0.401-0.354-0.323 0.054-0.234 0.394-0.13 0.367 0.271-0.068 0.302 0.481-0.132 0.429 0.005 0.221-0.154 0.52-0.194 0.535m-1.775-1.638c-0.167 0.316-0.374 0.643-0.595 0.866 0.284 0.06 0.381-0.103 0.553-0.213 0.291 0.247 0.402-0.19 0.255-0.275-0.089-0.051 0.055-0.247 0.227-0.201 0.192 0.052 0.312 0.185 0.268 0.44-0.099 0.03-0.172 0.128-0.172 0.244 0 0.138 0.106 0.251 0.236 0.251s0.237-0.113 0.237-0.251c0-0.081-0.036-0.154-0.092-0.201v0.001c0.028-0.302 0.163-0.393 0.402-0.354 0.322 0.054 0.233 0.394 0.129 0.367-0.271-0.068-0.3 0.481 0.134 0.429-0.007 0.221 0.152 0.52 0.193 0.535" stroke="#000" stroke-linecap="round" stroke-width=".096" fill="none"/>
        </g>
        <g transform="translate(134.7605,352.1544)">
          <path d="m0 0s0.005 0.128-0.024 0.217c0.068-0.051 0.139-0.051 0.308-0.064 0.242-0.018 0.254-0.106 0.293-0.262-0.014 0.177 0.023 0.237 0.02 0.33 0.158-0.17 0.299-0.039 0.462-0.206 0.069-0.07 0.066-0.147 0.051-0.2l0.007 0.004s0.333 0.198 0.425 0.211c0.114 0.017 0.168-0.007 0.34-0.022 0.016-0.078 0.022-0.32-0.09-0.438 0.105-0.067 0.163-0.224 0.291-0.424 0.125-0.2 0.251-0.388 0.285-0.477v-2.247h-3.951v2.227c0.031 0.307 0.324 0.573 0.553 0.76h0.001c-0.162 0.167-0.072 0.362-0.121 0.571 0.135 0.009 0.289 0.093 0.411 0.087 0.182-0.013 0.331-0.258 0.331-0.258v0.001c-0.04 0.077-0.009 0.148-0.036 0.273 0.213-0.096 0.323-0.028 0.439-0.08l0.005-0.003z" fill="#fcdd09"/>
        </g>
        <g transform="translate(134.3473,351.9756)">
          <path stroke-linejoin="round" d="m0 0s-0.15 0.248-0.334 0.26c-0.122 0.007-0.278-0.078-0.413-0.087 0.049-0.211-0.041-0.407 0.121-0.577m1.036 0.597s0.005 0.129-0.023 0.219c0.068-0.052 0.139-0.052 0.309-0.065 0.244-0.018 0.257-0.107 0.296-0.264-0.015 0.178 0.022 0.239 0.02 0.332 0.159-0.171 0.301-0.039 0.465-0.207 0.119-0.122 0.024-0.267 0.024-0.267m-0.928 0.088c-0.206 0.313-0.303 0.108-0.609 0.248 0.027-0.126-0.005-0.198 0.036-0.276m1.535 0.01s0.335 0.198 0.428 0.212c0.115 0.017 0.169-0.007 0.343-0.022 0.016-0.079 0.021-0.323-0.091-0.442m-0.343 0.01c0.091 0.03 0.278 0.03 0.343-0.01 0.106-0.068 0.164-0.226 0.293-0.427 0.126-0.202 0.253-0.392 0.286-0.482v-2.265h-3.978v2.245c0.032 0.316 0.339 0.59 0.572 0.778 0.184 0.147 0.272 0.117 0.4 0.118m2.262 0.296c-0.163-0.037-0.215-0.126-0.375-0.226" stroke="#000" stroke-linecap="round" stroke-miterlimit="1" stroke-width=".07" fill="none"/>
        </g>
        <g transform="translate(134.5757,351.0301)">
          <path d="m0 0c0-0.044-0.033-0.078-0.074-0.078-0.042 0-0.075 0.034-0.075 0.078 0 0.043 0.033 0.077 0.075 0.077 0.041 0 0.074-0.034 0.074-0.077"/>
        </g>
        <g transform="translate(133.8762,351.9843)">
          <path stroke-linejoin="round" d="m0 0c0.148 0.016 0.204-0.212 0.381-0.226m-0.167-0.276s-0.411-0.247-0.525-0.397c-0.197-0.258-0.08-0.645-0.401-0.741m0.475 0.252c-0.062-0.159-0.348-0.481-0.01-0.652m-0.16 0.197s-0.425-0.561 0.121-0.845l-0.013 0.424m-0.413 0.556s0.339 0.054 0.396 0.166m0.325 0.34c-0.119-0.298 0.12-0.323-0.191-0.736-0.288-0.383 0.027-0.646 0.166-0.713m0.207 1.556c0.13-0.372-0.123-0.361-0.109-0.762 0.016-0.387-0.195-0.359-0.084-0.863m0.991 1.459c-0.156-0.089-0.186-0.087-0.254-0.333-0.025-0.09-0.199-0.118-0.243-0.23-0.045-0.12-0.082-0.353-0.047-0.424 0.034-0.073 0.171-0.204 0.171-0.388s-0.01-0.362 0.011-0.429c0.02-0.066 0.101-0.122 0.278-0.152 0.112-0.02 0.191-0.163 0.416-0.165 0.113 0 0.191-0.004 0.274 0.073 0.097 0.088 0.182 0.129 0.237 0.149 0.053 0.019 0.231 0.075 0.231 0.248 0 0.174 0.005 0.229 0.005 0.342 0 0.188 0.065 0.184 0.087 0.354 0.021 0.171 0.01 0.368-0.063 0.481-0.051 0.076-0.195 0.084-0.249 0.21-0.033 0.078-0.064 0.159-0.228 0.254" stroke="#000" stroke-linecap="round" stroke-miterlimit="1" stroke-width=".07" fill="none"/>
        </g>
        <g transform="translate(134.8131,350.9113)">
          <path stroke-linejoin="round" d="m0 0c0.016-0.028-0.013-0.097-0.042-0.113" stroke="#000" stroke-linecap="round" stroke-miterlimit="1" stroke-width=".061" fill="none"/>
        </g>
        <g transform="translate(134.4184,348.5607)">
          <path stroke-linejoin="round" d="m0 0c-0.131 0.112 0.009 0.316-0.214 0.581-0.158 0.189-0.006 0.63-0.006 0.63-0.086-0.232-0.223-0.152-0.309-0.523m-0.394-0.469c0 0.172-0.057 0.488 0.214 0.534 0.192 0.033 0.344-0.218 0.207-0.524m-0.417-0.229c-0.006 0.153-0.015 0.333 0.229 0.327 0.235-0.005 0.228-0.254 0.221-0.334m-0.713 0.302s-0.073 0.354 0.294 0.328m-0.367-0.348c0.046 0.02 0.299 0.093 0.342-0.106m0.438-0.029c0.005 0.12 0.198 0.313 0.404 0.06m-0.382 0.33c0.021 0.035 0.143 0.129 0.233 0.06m-0.852 2.065c0.157 0.053 0.284-0.011 0.414 0.053m1.078-0.995c0.04 0.058 0.198 0.103 0.222-0.145 0.022-0.229 0.287-0.127 0.296 0.027 0.007 0.127 0.093 0.284 0.186 0.126m0.661 1.186c0.317-0.135 0.355-0.043 0.473-0.094 0.086-0.038 0.158-0.282 0.158-0.492m-0.241 0.335c0.049-0.181 0.299-0.318 0.332-0.542 0.05-0.336-0.118-0.41-0.161-0.781m0.123 0.424c0.035-0.183 0.191-0.245 0.254-0.611m-0.754 0.909c-0.012 0.159 0.04 0.185 0.112 0.307 0.016-0.254 0.166-0.332 0.236-0.571 0.042-0.143 0.042-0.405 0.001-0.656m-0.426-0.541c0.306 0.42-0.226 0.803 0.117 1.253 0.113-0.179 0.597-0.49 0.098-1.137m-0.116 0.203c-0.069 0.072-0.111 0.072-0.192 0.19 0.02-0.177 0.01-0.381-0.017-0.51m-0.169-0.424c-0.044 0.243 0.045 0.536 0.37 0.396m-0.019-0.391c-0.043 0.405 0.054 0.551 0.232 0.551 0.166 0 0.297-0.136 0.28-0.444m-0.493-0.281c-0.002 0.053-0.023 0.326 0.217 0.326 0.248 0 0.207-0.211 0.207-0.326m-0.817 0c-0.034 0.303 0.318 0.462 0.395 0.102m0.419 0.074c0.014 0.114 0.181 0.207 0.319 0.001m-0.307 0.424s0.225 0.063 0.307-0.15m-1.984 0.982c-0.018-0.086-0.028-0.193-0.222-0.253-0.145-0.045-0.289-0.066-0.297-0.313-0.009-0.247 0-0.338 0-0.338s-0.012-0.109 0.238-0.026c0.252 0.083 0.545 0.091 0.725 0.023 0.181-0.069 0.175 0.013 0.178 0.068 0.003 0.054-0.003 0.379-0.003 0.379s-0.031 0.177-0.22 0.19c-0.19 0.013-0.329 0.079-0.344 0.276" stroke="#000" stroke-linecap="round" stroke-miterlimit="1" stroke-width=".07" fill="none"/>
        </g>
        <g transform="translate(134.344,351.3498)">
          <path d="m0 0c0.132-0.007 0.275-0.158 0.415-0.154 0.096 0.001 0.14 0.048 0.176 0.081 0.029 0.029 0.104-0.004 0.048-0.066 0 0-0.024-0.035-0.079-0.077-0.048-0.034-0.108-0.04-0.143-0.114-0.018-0.038-0.059-0.037-0.076 0.006-0.016 0.044-0.08 0.144-0.197 0.129-0.135-0.016-0.156-0.111-0.171-0.138-0.019-0.037-0.083-0.018-0.064 0.027s0.025 0.053 0.036 0.083c0.013 0.034-0.005 0.055-0.037 0.032-0.027-0.019-0.104-0.039-0.091 0.026 0.017 0.089 0.108 0.172 0.183 0.165"/>
        </g>
        <g transform="translate(135.8135,351.0301)">
          <path d="m0 0c0-0.044 0.033-0.078 0.074-0.078s0.074 0.034 0.074 0.078c0 0.043-0.033 0.077-0.074 0.077s-0.074-0.034-0.074-0.077"/>
        </g>
        <g transform="translate(136.0439,351.3498)">
          <path d="m0 0c-0.131-0.007-0.274-0.158-0.414-0.154-0.096 0.001-0.14 0.048-0.174 0.081-0.032 0.029-0.106-0.004-0.05-0.066 0 0 0.024-0.035 0.079-0.077 0.048-0.034 0.109-0.04 0.143-0.114 0.018-0.038 0.059-0.037 0.075 0.006 0.017 0.044 0.082 0.144 0.197 0.129 0.136-0.016 0.157-0.111 0.172-0.138 0.019-0.037 0.083-0.018 0.064 0.027s-0.025 0.053-0.037 0.083c-0.013 0.034 0.005 0.055 0.037 0.032 0.028-0.019 0.104-0.039 0.092 0.026-0.016 0.089-0.109 0.172-0.184 0.165"/>
        </g>
        <g transform="translate(135.1733,351.3146)">
          <path stroke-linejoin="round" d="m0 0v-0.102m0.412-0.323s-0.015-0.094 0.047-0.124" stroke="#000" stroke-linecap="round" stroke-miterlimit="1" stroke-width=".061" fill="none"/>
        </g>
        <g transform="translate(134.7936,349.7131)">
          <path stroke-linejoin="round" d="m0 0s0.053-0.199 0.106-0.199c0.026 0 0.086 0.091 0.106 0.278m0.645-0.079s-0.048-0.207-0.093-0.207c-0.025 0-0.076 0.062-0.099 0.248m0.209-0.689s-0.089 0.274-0.123 0.274c-0.014 0-0.052-0.033-0.082-0.219m-0.683-0.085s0.062 0.291 0.107 0.291c0.026 0 0.091-0.079 0.187-0.216" stroke="#000" stroke-linecap="round" stroke-miterlimit="1" stroke-width=".07" fill="none"/>
        </g>
        <g transform="translate(135.5613,354.3011)">
          <path stroke-linejoin="round" d="m0 0c0.257-0.053 0.498-0.155 0.713-0.295m-2.246 0c0.216 0.14 0.456 0.242 0.714 0.295m2.116-0.857c0.115-0.161 0.211-0.34 0.283-0.532m-3.979 0c0.072 0.192 0.167 0.371 0.283 0.532m3.921 0.409c0.2-0.279 0.353-0.596 0.449-0.941m-2.132 2.053c0.334-0.069 0.647-0.201 0.925-0.383m-2.914 0c0.28 0.182 0.593 0.314 0.926 0.383m-2.133-2.053c0.097 0.345 0.251 0.662 0.45 0.941m-0.178 0.145c0.223 0.311 0.501 0.579 0.818 0.787l-0.001-0.001 0.57-0.981c-0.202-0.132-0.379-0.302-0.521-0.503l-0.868 0.696 0.002 0.002zm3.398-0.195 0.569 0.981-0.002 0.001c0.317-0.206 0.595-0.475 0.82-0.787l0.001-0.002-0.866-0.696c-0.144 0.201-0.321 0.372-0.523 0.504l0.001-0.001zm-1.569 1.329 0.197-1.063v-0.002h0.733l0.195 1.065m-2.407-1.906h3.691m-1.846-0.463v1.304m0.398-1.304v1.475m0.398-1.475v1.417m0.398-1.417v0.9m0.398-0.9v0.59m-3.184-0.59v0.59m0.398-0.59v0.9m0.398-0.9v1.417m0.399-1.417v1.474" stroke="#000" stroke-linecap="round" stroke-miterlimit="1" stroke-width=".096" fill="none"/>
        </g>
      </g>
    </g>
    <g transform="translate(133.8188,352.8293)">
      <path d="m0 0-0.248-0.262-0.247 0.262h0.495z"/>
    </g>
    <g transform="translate(134.213,352.8293)">
      <path d="m0 0-0.247-0.262-0.247 0.262h0.494z"/>
    </g>
    <g transform="translate(134.6089,352.8293)">
      <path d="m0 0-0.247-0.262-0.247 0.262h0.494z"/>
    </g>
    <g transform="translate(135.0034,352.8293)">
      <path d="m0 0-0.246-0.262-0.247 0.262h0.493z"/>
    </g>
    <g transform="translate(135.3986,352.8293)">
      <path d="m0 0-0.247-0.262-0.247 0.262h0.494z"/>
    </g>
    <g transform="translate(135.7935,352.8293)">
      <path d="m0 0-0.247-0.262-0.246 0.262h0.493z"/>
    </g>
    <g transform="translate(136.1884,352.8293)">
      <path d="m0 0-0.246-0.262-0.248 0.262h0.494z"/>
    </g>
    <g transform="translate(136.5842,352.8293)">
      <path d="m0 0-0.247-0.262-0.246 0.262h0.493z"/>
    </g>
    <g transform="translate(136.9794,352.8293)">
      <path d="m0 0-0.247-0.262-0.247 0.262h0.494z"/>
    </g>
    <g>
      <g clip-path="url(#a)">
        <g transform="translate(156.1197,364.1505)">
          <path d="m0 0c0.647 0.07 1.142 0.543 1.155 1.261 0.01 0.609-0.745 0.95-1.049 0.6 0.738 0.171 0.745-1.38-0.383-1.164-0.736 0.141-1.429 0.713-2.246 0.698-0.723-0.015-1.078-0.23-1.502-0.594 0.503 0.273 0.847 0.727 2.267-0.208 0.686-0.451 1.253-0.648 1.758-0.593" fill="#da121a"/>
        </g>
        <g transform="translate(150.0826,368.5676)">
          <path d="m0 0c0.191 0.004 0.617 0.046 0.842-0.023 0.297-0.092 0.533-0.133 0.768-0.13 0.284 0.004 0.512-0.023 0.607-0.1 0.096-0.075 0.091-0.144 0.231-0.183 0.139-0.038 0.75-0.152 1.015-0.284 0.214-0.108 0.405-0.244 0.511-0.393 0.121-0.17-0.033-0.46-0.155-0.397 0.308-0.347-0.168-1.129-0.606-1.272 0.033 0.129 0.098 0.459-0.039 0.459-0.226 0-0.563-0.152-0.695-0.236-0.32-0.207-0.34-0.408-0.485-0.633-0.13-0.204-0.25-0.278-0.373-0.505-0.065-0.116-0.049-0.337 0.186-0.227 0.17 0.079 0.384 0.24 0.539 0.237 0.203-0.007 0.385-0.075 0.502-0.064 0.221 0.021 0.387 0.355 0.387 0.355s0.098-0.341 0.141-0.461c0.06-0.169 0.104-0.425-0.077-0.512-0.037-0.019-0.111-0.035-0.153-0.068-0.06-0.047-0.088-0.136-0.15-0.172-0.083-0.049-0.171-0.029-0.208-0.051-0.223-0.144 0.039-0.351-0.03-0.407-0.532 0.132-0.55 0.599-0.569 0.667-0.022 0.076-0.025 0.095-0.149 0.098-0.211 0.005-0.748-0.124-0.748-0.124-0.048-0.134-0.151-0.256-0.293-0.334 0 0 0.488-0.574 0.546-0.838 0.02 0.059 0.038 0.129 0.051 0.208 0.207-0.172 0.203-0.486 0.042-0.736 0.12-0.405 0.78-0.918 1.055-0.251 0.332-0.498-0.218-0.88-0.507-0.762l0.009-0.006c0.145-0.118 0.305-0.255 0.486-0.455 0.574-0.63 0.509-1.302 0.146-1.683 0.11 0.242 0.153 0.465-0.049 0.677-0.115 0.121-0.26 0.232-0.409 0.34l-0.009-0.011c-0.04-0.023-0.08-0.043-0.117-0.063 0 0 1.79-3.671 2.044-4.271 0.219-0.514 0.702-1.41 0.702-1.41 0.07-0.126 0.308-0.476 0.418-0.781 0.11-0.304 0.217-0.596 0.348-0.836 0.143-0.261 1.08-0.958 2.092-0.163 0.417 0.329 0.654 1.02 0.506 1.867-0.154 0.876-0.875 1.656-1.281 2.037-0.423 0.4-1.172 0.84-2.053 1.454-1.102 0.768-1.621 1.592-1.621 2.662 0 1.225 0.891 2.047 1.837 2.15 1.056 0.114 1.7-0.386 1.962-0.745 0.629-0.863 0.389-1.735 0.057-2.135-0.031-0.3-0.184-0.512-0.478-0.593-0.095-0.027-0.176-0.026-0.247-0.007h0.001c-0.214-0.464 0.265-0.897 0.657-0.485 0-0.896-0.963-0.64-1.11-0.301h-0.001c-0.804 0.062-0.717 1.118-0.434 1.351l0.019 0.016c-0.273-0.051-0.57 0.053-0.651 0.453 0.252-0.263 0.618-0.137 0.806 0.188 0.17 0.294 0.2 0.839-0.203 1.177-0.528 0.441-1.393 0.132-1.604-0.791-0.175-0.76 0.034-1.619 1.036-2.352 0.286-0.21 1.337-0.864 1.847-1.225 0.512-0.362 2.239-1.829 2.071-3.494-0.16-1.59-1.157-1.989-1.621-2.086-1.544-0.324-2.013 0.678-2.013 0.678l-0.009 0.017c0.081-0.149 0.154-0.24 0.154-0.24 0.115-0.183 0.295-0.498 0.36-0.665 0.066-0.168 0.101-0.729 0.127-0.856 0.024-0.124 0.119-0.208 0.229-0.234 0.111-0.027 0.381 0.036 0.546 0.115 0.165 0.078 0.606 0.345 0.825 0.462 0.221 0.114 0.661 0.203 0.836 0.255 0.175 0.053 0.325 0.085 0.44 0.205 0.116 0.12 0.109 0.423-0.104 0.514 0.064 0.016 0.503-0.02 0.562-0.397 0.008-0.057 0.007-0.112-0.005-0.165l-0.002 0.001s0.793-0.165 1.041-0.058c0.565 0.246 0.346 0.926 0.04 0.923 0.151 0.095 0.571 0.19 0.836-0.361 0.19-0.395-0.004-0.998-0.21-1.215-0.065-0.069-0.135-0.13-0.206-0.184l0.005-0.007c0.093-0.125 0.141-0.287 0.126-0.5-0.038-0.51-0.281-0.743-0.505-0.893-0.046-0.03-0.141-0.07-0.25-0.117l-0.001 0.001c0.071-0.116 0.126-0.274 0.104-0.482-0.051-0.492-0.437-0.624-0.409-1.008 0.011-0.169 0.32-2.892 0.335-3.008 0.113-0.86-0.698-0.848-0.698-0.848l-3.195-0.001c-0.347 0.306-0.261 0.621-0.156 0.77-0.086 0.284 0.052 0.545 0.179 0.629 0.082 0.054 0.2 0.189 0.297 0.319 0.097 0.131 0.394 0.325 0.536 0.305 0.251-0.036 0.445-0.288 1.276-0.037-0.267 0.292-0.398 0.41-0.67 0.716-0.274 0.304-0.658 0.812-0.818 0.928-0.159 0.116-0.697-0.107-0.697-0.107-0.028-0.305-0.191-0.484-0.353-0.574l-0.001 0.002c0.097-0.139 0.197-0.348 0.247-0.653 0.104-0.624-0.345-1.377-1.048-1.314l-0.001-0.01c-0.15-0.499-0.599-0.831-1.118-0.807-0.719 0.033-1.471 0.882-1.074 1.49 0.49-0.996 1.333-0.587 1.509-0.093l-0.008-0.018c-0.322-0.547-0.927 0.019-0.923 0.126 0.254-0.293 0.621 0.173 0.366 0.575-0.192 0.306-0.635 0.469-0.912 0.754-0.44 0.451-0.65 1.007-0.765 1.864-0.064 0.475-0.084 1.299-0.06 2.118 0.006 0.226 0.011 0.426 0.014 0.594l0.004 0.023s-0.59-0.905-1.62-1.263c-0.432-0.149-1.339-0.297-1.57-0.344-0.229-0.047-0.147-0.374 0.128-0.578 0.194-0.143 1.176-0.752 1.375-0.918 0.184-0.149 0.21-0.24 0.257-0.489 0.037-0.19 0.028-0.338 0.194-0.386 0.234-0.069 0.312 0.133 0.342 0.255 0.11-0.104 0.158-0.556-0.1-0.69v-0.004c0.021-0.251 0.116-0.745 0.499-0.837 0.292-0.069 0.531 0.162 0.46 0.446 0.246-0.268 0.257-0.885-0.299-1.099-0.592-0.228-1.09 0.178-1.09 0.178l-0.003 0.002c-0.049-0.074-0.122-0.138-0.23-0.183-0.648-0.277-1.335 0.479-1.651 0.697-0.118 0.083-0.438 0.126-0.438 0.126s0.151-0.127 0.196-0.298c0.061-0.224 0.359-0.302 0.671-0.218-0.245-0.256-0.502-0.334-0.724-0.326-0.222 0.007-0.487 0.108-0.631 0.085-0.098-0.013-0.376-0.224-0.666-0.425-0.266-0.184-0.548-0.348-0.696-0.475-0.097-0.084-0.14-0.208-0.206-0.374-0.078-0.198-0.242-0.481-0.673-0.481h-1.737-1.606s-0.377 0.427-0.005 0.711c-0.07 0.152-0.153 0.455-0.009 0.541 0.216 0.129 0.271 0.205 0.34 0.327l0.008 0.011c0.031 0.056 0.077 0.109 0.141 0.153 0.094 0.063 0.208 0.106 0.291 0.144 0.16 0.073 0.273 0.153 0.42 0.141 0.194-0.016 0.378-0.282 0.867-0.15 0.15 0.04 0.246 0.013 0.522-0.004 0.125-0.009 0.302 0.048 0.43 0.358 0.101 0.243 0.269 0.603 0.301 0.671l0.002 0.004c-0.019 0.007-0.037 0.014-0.054 0.024l-0.002-0.001c-1.306-1.029-3.077 0.579-1.713 1.598-0.279-1.537 1.612-0.999 1.192-0.092-0.173-0.452-0.419-0.472-0.628-0.359-0.168 0.123-0.239 0.304-0.164 0.469 0.072-0.074 0.176-0.178 0.315-0.107 0.113 0.057 0.266 0.209-0.086 0.641-0.309 0.378-0.387 0.708-0.402 0.926-0.014 0.216 0.079 1.058 0.14 1.305 0.068 0.273 0.176 0.557 0.446 0.841 0.31 0.324 1.494 1.348 2.009 1.66 0.443 0.271 1.077 0.694 2.38 0.739 0.993 0.036 2.168 0.01 3.773-0.187l0.027 0.064s-0.221 0.634-0.884 1.083c-0.502 0.341-1.335 0.48-1.644 0.525-0.351 0.054-1.16 0.15-1.547 0.206-0.481 0.07-0.821 0.394-0.821 0.394-0.175-0.306-0.427-0.352-0.427-0.352 0.07 0.181 0.154 0.335 0.079 0.62-0.056 0.208-0.318 0.323-0.394 0.544-0.034-0.225 0.049-0.417 0.22-0.868 0.336-0.89-0.128-1.333-0.55-1.374-0.327-0.024-0.519 0.144-0.605 0.43 0.232-0.144 0.472-0.064 0.613 0.09 0.211 0.232 0.153 0.603-0.009 0.848l-0.004 0.006c-0.031-0.158-0.271-0.611-0.708-0.302 0.282 0.048 0.287 0.302 0.227 0.411-0.06 0.11-0.253 0.345-0.338 0.465-0.128 0.181-0.089 0.471-0.089 0.471l-0.004-0.003c-0.612-0.299-0.644-0.441-0.721-0.557v-0.005c-0.002-0.154 0.012-0.356-0.052-0.48-0.081-0.154-0.131-0.235-0.11-0.613 0.019-0.302-0.12-0.425-0.224-0.48-0.106-0.055-0.227-0.047-0.293-0.094-0.107-0.078-0.15-0.234 0.022-0.377-0.264-0.143-0.68 0.06-0.61 0.557-0.043 0.041-0.077 0.083-0.104 0.129v-0.001c-0.2-0.088-0.258-0.193-0.2-0.41-0.306 0.172-0.325 0.404-0.278 0.574l-0.013-0.003c-0.13-0.031-0.407 0.252-0.22 0.504-0.202 0.211-0.09 0.613 0.042 0.784 0.137 0.179 0.28 0.271 0.513 0.578 0.25 0.329 0.312 0.463 0.608 0.676 0.275 0.199 0.591 0.361 1.042 0.625l-0.027-0.011c-0.007-0.005-0.012-0.008-0.018-0.012-0.535-0.349-1.496-0.078-1.427 0.883 0.145-0.88 1.066-0.416 1.103 0.16l0.002 0.008c-0.067-0.424-0.508-0.612-0.766-0.084 0.127-0.096 0.312-0.016 0.376 0.135 0.079 0.187-0.095 0.402-0.186 0.731-0.092 0.33 0.052 0.474 0.052 0.474-0.312-0.078-0.669 0.093-0.762 0.542 0.14-0.115 0.245-0.139 0.321-0.133 0.249 0.023 0.467 0.239 0.473 0.632 0.001 0.074 0.007 0.216 0.016 0.392v0.002c-0.118 0.173-0.557 0.464-0.557 0.464l0.002 0.005c0.069 0.095 0.117 0.147 0.117 0.147l-0.439 1.179c-0.128 0.13-0.163 0.363-0.192 0.513l-0.309 0.832c-0.369-0.039-0.705-0.025-1.018 0.029l-0.011 0.026s-0.286 0.421 0.045 0.646c-0.037 0.064-0.116 0.253-0.003 0.371 0.114 0.12 0.195 0.082 0.454 0.075 0.26-0.007 0.328 0.051 0.442-0.016 0.113-0.065 0.175-0.154 0.175-0.154 0.055 0.024 0.118 0.037 0.19 0.028 0.284-0.029 0.539-0.209 0.697-0.485 0.125-0.217 0.136-0.347 0.136-0.497 0-0.221-0.051-0.336 0.077-0.552 0.108-0.186 0.084-0.32 0.084-0.431 0-0.302 0.385-0.518 0.385-0.518 0.171 0.381 0.412 0.643 0.475 0.711l-0.005-0.004c-0.195-0.095-0.817-0.077-0.61 0.494 0.084-0.126 0.274-0.2 0.511-0.067 0.291 0.163 0.574 1.144 1.057 1.347-0.159 0.047-0.296 0.15-0.338 0.292-0.052 0.172 0.021 0.352 0.067 0.412 0.088-0.2 0.39-0.34 0.787-0.183 0.421 0.165 1.019 0.714 1.362 0.79-0.115 0.281-0.019 0.507 0.049 0.528-0.112 0.309 0.052 0.666 0.156 0.789 0.295-0.231 0.554-0.204 0.862-0.271 0.297-0.065 0.611-0.283 0.83-0.52v-0.001zm10.52-18.039c-0.173-0.098-0.321-0.156-0.381-0.183-0.227-0.106-0.386-0.446-0.386-0.446s0.703 0.039 0.766 0.56c0.001 0.015 0.003 0.029 0.001 0.047v0.022zm-0.568-1.439c-0.16-0.076-0.304-0.161-0.333-0.248-0.059-0.174-0.098-0.256-0.196-0.398 0.357 0.175 0.489 0.432 0.531 0.646h-0.002z" fill="#fcdd09"/>
        </g>
        <g transform="translate(114.1849,364.1505)">
          <path d="m0 0c-0.649 0.07-1.144 0.543-1.156 1.261-0.01 0.609 0.744 0.95 1.05 0.6-0.738 0.171-0.746-1.38 0.381-1.164 0.738 0.141 1.43 0.713 2.246 0.698 0.724-0.015 1.078-0.23 1.503-0.594-0.502 0.273-0.847 0.727-2.267-0.208-0.685-0.451-1.253-0.648-1.757-0.593" fill="#da121a"/>
        </g>
        <g transform="translate(120.2219,368.5686)">
          <path d="m0 0c0.218 0.237 0.533 0.455 0.829 0.52 0.309 0.067 0.567 0.04 0.863 0.271 0.104-0.123 0.266-0.48 0.155-0.789 0.068-0.021 0.164-0.247 0.049-0.528 0.344-0.076 0.941-0.625 1.362-0.79 0.398-0.157 0.699-0.017 0.787 0.183 0.046-0.06 0.119-0.24 0.068-0.412-0.043-0.142-0.18-0.245-0.34-0.292 0.485-0.203 0.767-1.185 1.058-1.347 0.238-0.133 0.427-0.059 0.511 0.067 0.207-0.571-0.415-0.589-0.609-0.494l-0.006 0.004c0.064-0.068 0.304-0.33 0.476-0.711 0 0 0.384 0.216 0.384 0.518 0 0.111-0.024 0.245 0.084 0.431 0.127 0.215 0.078 0.331 0.078 0.552 0 0.15 0.011 0.28 0.134 0.497 0.159 0.276 0.414 0.456 0.699 0.485 0.072 0.009 0.135-0.004 0.188-0.028 0 0 0.064 0.089 0.176 0.154 0.114 0.067 0.182 0.009 0.441 0.016 0.261 0.007 0.341 0.045 0.455-0.075 0.112-0.118 0.034-0.307-0.004-0.371 0.331-0.225 0.045-0.646 0.045-0.646l-0.011-0.026c-0.311-0.054-0.648-0.068-1.017-0.029l-0.31-0.832c-0.028-0.15-0.063-0.383-0.191-0.513l-0.438-1.179s0.048-0.052 0.116-0.147l0.002-0.005s-0.439-0.291-0.555-0.464v-0.002c0.009-0.176 0.013-0.318 0.014-0.392 0.006-0.393 0.223-0.609 0.472-0.632 0.077-0.007 0.183 0.018 0.322 0.133-0.093-0.449-0.45-0.621-0.762-0.542 0 0 0.144-0.144 0.053-0.474-0.091-0.329-0.267-0.544-0.186-0.731 0.064-0.151 0.249-0.231 0.375-0.135-0.257-0.528-0.699-0.34-0.766 0.084l0.002-0.008c0.037-0.576 0.958-1.04 1.102-0.16 0.07-0.961-0.891-1.232-1.425-0.884-0.007 0.005-0.014 0.008-0.018 0.013l-0.027 0.011c0.451-0.264 0.766-0.426 1.042-0.626 0.295-0.212 0.357-0.346 0.607-0.675 0.234-0.307 0.375-0.399 0.512-0.578 0.132-0.171 0.246-0.573 0.043-0.784 0.186-0.252-0.09-0.535-0.219-0.504l-0.015 0.003c0.049-0.171 0.028-0.402-0.277-0.574 0.057 0.216 0 0.322-0.2 0.41v0.001c-0.027-0.046-0.062-0.088-0.103-0.129 0.069-0.497-0.347-0.7-0.612-0.558 0.174 0.144 0.131 0.3 0.023 0.378-0.066 0.047-0.187 0.039-0.292 0.094-0.104 0.055-0.243 0.178-0.226 0.48 0.022 0.378-0.027 0.459-0.108 0.613-0.066 0.124-0.051 0.326-0.053 0.479v0.006c-0.077 0.116-0.11 0.258-0.72 0.557l-0.004 0.003s0.038-0.29-0.091-0.471c-0.083-0.12-0.278-0.355-0.337-0.465-0.06-0.109-0.055-0.363 0.227-0.411-0.437-0.309-0.677 0.144-0.708 0.302l-0.004-0.006c-0.162-0.245-0.219-0.616-0.009-0.849 0.141-0.153 0.381-0.233 0.614-0.089-0.086-0.286-0.28-0.454-0.606-0.43-0.422 0.041-0.886 0.484-0.55 1.374 0.171 0.451 0.254 0.643 0.219 0.868-0.074-0.221-0.337-0.336-0.392-0.544-0.076-0.285 0.008-0.439 0.077-0.62 0 0-0.25 0.046-0.427 0.352 0 0-0.337-0.324-0.821-0.394-0.384-0.057-1.194-0.152-1.546-0.206-0.309-0.045-1.141-0.184-1.644-0.525-0.664-0.449-0.883-1.083-0.883-1.083l0.026-0.064c1.605 0.197 2.781 0.223 3.773 0.187 1.304-0.045 1.936-0.468 2.38-0.739 0.514-0.312 1.699-1.336 2.008-1.66 0.271-0.284 0.38-0.569 0.447-0.841 0.062-0.247 0.154-1.089 0.14-1.305-0.015-0.218-0.093-0.548-0.402-0.926-0.352-0.432-0.2-0.584-0.086-0.641 0.14-0.071 0.243 0.033 0.316 0.107 0.075-0.165 0.003-0.346-0.164-0.469-0.21-0.113-0.456-0.093-0.629 0.358-0.42-0.906 1.471-1.444 1.193 0.093 1.362-1.019-0.409-2.627-1.714-1.598l-0.001 0.001c-0.018-0.01-0.036-0.017-0.055-0.024l0.001-0.004c0.033-0.068 0.2-0.428 0.301-0.671 0.128-0.311 0.306-0.367 0.432-0.358 0.275 0.017 0.371 0.044 0.52 0.003 0.488-0.131 0.674 0.135 0.868 0.151 0.147 0.012 0.26-0.068 0.42-0.141 0.084-0.038 0.199-0.081 0.291-0.144 0.065-0.044 0.111-0.097 0.142-0.153l0.006-0.011c0.071-0.122 0.124-0.198 0.341-0.327 0.143-0.086 0.061-0.389-0.009-0.541 0.371-0.284-0.005-0.711-0.005-0.711h-1.606-1.738c-0.429 0-0.594 0.283-0.672 0.481-0.066 0.166-0.109 0.29-0.205 0.374-0.149 0.126-0.431 0.291-0.696 0.475-0.291 0.201-0.569 0.412-0.667 0.425-0.142 0.023-0.408-0.078-0.63-0.085-0.222-0.008-0.481 0.07-0.725 0.326 0.311-0.084 0.611-0.006 0.671 0.218 0.044 0.171 0.196 0.298 0.196 0.298s-0.319-0.044-0.437-0.126c-0.317-0.218-1.004-0.974-1.652-0.697-0.108 0.045-0.182 0.109-0.23 0.183l-0.002-0.002s-0.498-0.406-1.091-0.178c-0.557 0.214-0.545 0.831-0.299 1.099-0.07-0.284 0.168-0.515 0.46-0.446 0.384 0.092 0.477 0.586 0.499 0.837v0.004c-0.259 0.134-0.21 0.586-0.1 0.69 0.03-0.122 0.108-0.324 0.342-0.255 0.167 0.048 0.158 0.196 0.194 0.386 0.046 0.249 0.075 0.34 0.256 0.489 0.2 0.166 1.182 0.775 1.376 0.918 0.276 0.204 0.357 0.531 0.128 0.578-0.231 0.047-1.138 0.195-1.57 0.344-1.03 0.358-1.621 1.263-1.621 1.263l0.005-0.023c0.003-0.168 0.008-0.368 0.015-0.595 0.023-0.819 0.003-1.642-0.061-2.117-0.116-0.857-0.325-1.413-0.765-1.864-0.276-0.285-0.719-0.448-0.913-0.754-0.254-0.402 0.112-0.868 0.368-0.575 0.002-0.107-0.602-0.673-0.924-0.126l-0.007 0.018c0.175-0.494 1.018-0.903 1.508 0.093 0.396-0.608-0.355-1.457-1.074-1.49-0.519-0.024-0.968 0.308-1.118 0.807l-0.001 0.01c-0.703-0.063-1.152 0.69-1.048 1.314 0.05 0.305 0.15 0.514 0.247 0.653l-0.001-0.002c-0.161 0.09-0.325 0.269-0.352 0.574 0 0-0.539 0.223-0.698 0.107s-0.544-0.624-0.818-0.928c-0.272-0.306-0.403-0.424-0.67-0.716 0.831-0.251 1.025 0.001 1.275 0.037 0.143 0.02 0.44-0.174 0.537-0.305 0.097-0.13 0.215-0.265 0.297-0.319 0.127-0.084 0.265-0.345 0.179-0.629 0.105-0.149 0.191-0.464-0.156-0.771l-3.196 0.002s-0.811-0.012-0.697 0.848c0.015 0.116 0.324 2.839 0.336 3.008 0.027 0.384-0.36 0.516-0.411 1.008-0.021 0.208 0.034 0.366 0.105 0.482l-0.002-0.001c-0.107 0.047-0.203 0.087-0.249 0.117-0.224 0.15-0.466 0.383-0.505 0.893-0.016 0.213 0.032 0.375 0.126 0.5l0.005 0.007c-0.071 0.054-0.14 0.115-0.205 0.184-0.208 0.217-0.401 0.82-0.211 1.215 0.264 0.551 0.684 0.456 0.836 0.361-0.306 0.003-0.525-0.677 0.04-0.923 0.248-0.107 1.041 0.058 1.041 0.058l-0.003-0.001c-0.01 0.053-0.012 0.108-0.003 0.165 0.058 0.377 0.497 0.413 0.562 0.397-0.214-0.091-0.22-0.394-0.106-0.514 0.115-0.12 0.266-0.152 0.44-0.205 0.176-0.052 0.616-0.141 0.837-0.255 0.22-0.117 0.66-0.384 0.826-0.462 0.164-0.079 0.434-0.142 0.545-0.115 0.11 0.026 0.205 0.11 0.23 0.234 0.025 0.127 0.06 0.688 0.125 0.856 0.066 0.167 0.245 0.482 0.36 0.665 0 0 0.074 0.091 0.154 0.24l-0.009-0.017s-0.468-1.002-2.011-0.678c-0.465 0.097-1.461 0.496-1.622 2.086-0.167 1.665 1.56 3.132 2.071 3.494 0.51 0.361 1.561 1.015 1.847 1.225 1.003 0.733 1.211 1.592 1.037 2.352-0.212 0.923-1.076 1.232-1.605 0.791-0.404-0.338-0.373-0.883-0.203-1.177 0.188-0.325 0.555-0.451 0.805-0.188-0.08-0.4-0.377-0.504-0.649-0.453l0.018-0.016c0.283-0.233 0.37-1.289-0.434-1.351-0.148-0.339-1.11-0.595-1.11 0.301 0.392-0.412 0.87 0.021 0.657 0.485-0.07-0.019-0.153-0.021-0.248 0.007-0.293 0.081-0.445 0.293-0.478 0.593-0.331 0.4-0.57 1.272 0.059 2.135 0.261 0.359 0.905 0.859 1.962 0.745 0.946-0.103 1.836-0.925 1.836-2.15 0-1.07-0.519-1.894-1.621-2.662-0.881-0.614-1.63-1.054-2.053-1.454-0.405-0.381-1.126-1.161-1.281-2.037-0.148-0.847 0.089-1.538 0.507-1.867 1.01-0.796 1.948-0.098 2.091 0.163 0.131 0.24 0.238 0.532 0.348 0.836 0.111 0.305 0.348 0.655 0.418 0.781 0 0 0.483 0.896 0.702 1.41 0.256 0.6 2.045 4.271 2.045 4.271-0.039 0.02-0.077 0.04-0.116 0.063l-0.01 0.011c-0.15-0.108-0.295-0.219-0.411-0.34-0.201-0.212-0.157-0.435-0.048-0.677-0.363 0.381-0.428 1.053 0.145 1.682 0.183 0.201 0.342 0.337 0.487 0.456l0.01 0.006c-0.291-0.118-0.839 0.264-0.509 0.762 0.276-0.667 0.936-0.154 1.056 0.251-0.161 0.25-0.165 0.564 0.041 0.736 0.015-0.079 0.032-0.149 0.052-0.208 0.059 0.264 0.546 0.838 0.546 0.838-0.141 0.077-0.245 0.2-0.293 0.334h0.002s-0.539 0.129-0.75 0.124c-0.124-0.003-0.127-0.022-0.149-0.098-0.018-0.068-0.036-0.535-0.57-0.667-0.068 0.056 0.194 0.263-0.03 0.407-0.037 0.022-0.124 0.002-0.208 0.051-0.061 0.036-0.089 0.125-0.148 0.172-0.043 0.033-0.117 0.049-0.154 0.068-0.181 0.087-0.138 0.343-0.078 0.512 0.045 0.12 0.142 0.461 0.142 0.461s0.167-0.334 0.388-0.355c0.117-0.011 0.299 0.057 0.501 0.064 0.154 0.003 0.368-0.158 0.539-0.237 0.236-0.11 0.252 0.111 0.187 0.227-0.123 0.227-0.243 0.301-0.374 0.505-0.144 0.224-0.164 0.426-0.486 0.633-0.131 0.083-0.467 0.236-0.695 0.236-0.135 0-0.071-0.33-0.038-0.459-0.437 0.142-0.914 0.925-0.607 1.272-0.121-0.063-0.274 0.227-0.154 0.397 0.106 0.149 0.297 0.285 0.512 0.393 0.264 0.132 0.876 0.246 1.015 0.284 0.139 0.039 0.133 0.108 0.229 0.183 0.095 0.077 0.323 0.104 0.609 0.1 0.234-0.003 0.469 0.038 0.768 0.13 0.225 0.069 0.65 0.027 0.841 0.023l0.001 0.001zm-10.522-18.062c-0.001-0.018 0-0.032 0.002-0.047 0.064-0.521 0.766-0.56 0.766-0.56s-0.159 0.34-0.386 0.446c-0.06 0.027-0.207 0.085-0.382 0.183v-0.022zm0.568-1.417c0.041-0.214 0.173-0.471 0.531-0.646-0.1 0.142-0.137 0.224-0.197 0.398-0.029 0.087-0.172 0.172-0.333 0.248h-0.001z" fill="#fcdd09"/>
        </g>
        <g transform="translate(156.1304,364.167)">
          <path stroke-linejoin="round" d="m0 0c0.649 0.07 1.145 0.544 1.158 1.264 0.01 0.61-0.747 0.952-1.051 0.601 0.739 0.171 0.746-1.383-0.385-1.167-0.738 0.142-1.432 0.715-2.251 0.7-0.725-0.015-1.081-0.231-1.506-0.596 0.504 0.275 0.849 0.73 2.272-0.208 0.689-0.451 1.257-0.649 1.763-0.594zm-3.309-8.544s0.31-0.509 0.285-0.832c-0.027-0.373-0.893-1.92-0.893-2.811 0 0-0.003-0.447-0.023-1.171-0.024-0.82-0.004-1.646 0.06-2.121 0.116-0.86 0.326-1.417 0.767-1.869 0.278-0.286 0.722-0.449 0.915-0.755 0.255-0.403-0.112-0.87-0.368-0.576-0.003-0.108 0.603-0.675 0.926-0.127m0.693-0.574c-0.151-0.499-0.601-0.832-1.121-0.808-0.721 0.033-1.475 0.884-1.077 1.494 0.642-1.303 1.889-0.204 1.455 0.348m1.423 1.093c-0.048 0.05-0.096 0.091-0.126 0.123-0.111 0.117-0.899 0.755-1.226 1.358 0.576-0.853 0.846-0.699 1.23-0.987 0.252-0.191 0.154-0.539-0.012-0.713 0.182-0.009 0.582 0.165 0.616 0.674 0.076 1.199-1.023 1.375-1.26 1.975 0.332-0.432 1.077-0.344 1.069-0.975 0.474 1.169-1.102 1.036-1.791 2.239 0.425-0.669 1.083-0.227 1.268-0.92 0.189 0.214 0.203 0.642-0.038 0.892-0.228 0.235-0.989 0.734-1.059 0.953 0.121-0.15 0.319-0.227 0.508-0.286 0.173-0.055 0.353-0.232 0.371-0.342 0.023 0.228-0.006 0.573-0.307 0.715-0.348 0.163-0.479 0.222-0.567 0.293-0.116 0.091-0.292 0.296-0.305 0.401 0.107-0.102 0.184-0.137 0.331-0.19 0.229-0.082 0.36-0.184 0.432-0.358 0 0 0.054 0.421-0.142 0.553-0.238 0.158-0.74 0.479-0.871 0.684m1.388-6.78c0.353-0.483 0.344-1.436-0.574-1.316 0.918-0.437 1.558 0.475 1.436 1.207-0.05 0.306-0.15 0.515-0.247 0.655m-1.952 6.52s0.19-0.073 0.269-0.211m-0.295 0.645s0.235-0.137 0.284-0.279m-0.286 0.736c0.106-0.06 0.187-0.121 0.308-0.328-0.098 0.303 0.031 0.389-0.137 0.576m2.427-9.031s-0.141-0.256-0.02-0.604c-0.159-0.287-0.032-0.532 0.095-0.682m1.71 1.25c-0.193 0.103-0.515-0.065-0.703-0.04-0.081 0.01-0.31 0.114-0.407 0.073-0.098-0.043-0.383-0.152-0.216-0.572-0.103-0.181-0.188-0.324-0.148-0.581m-6.399 3.154c0.024-0.161 0.24-0.514 0.63-0.413 0.332 0.086 0.284 0.603 0.165 0.715-0.03-0.122-0.108-0.325-0.343-0.256-0.166 0.049-0.157 0.197-0.194 0.387-0.047 0.25-0.074 0.342-0.258 0.491-0.2 0.166-1.184 0.776-1.379 0.92-0.275 0.204-0.358 0.532-0.128 0.579 0.231 0.047 1.141 0.195 1.574 0.344 1.033 0.359 1.625 1.266 1.625 1.266m-0.997-4.426c0.021-0.252 0.116-0.747 0.5-0.839 0.293-0.07 0.532 0.163 0.461 0.446 0.247-0.268 0.258-0.886-0.299-1.1-0.594-0.229-1.093 0.178-1.093 0.178m-0.845 0.857s0.046-0.454 0.414-0.546c0.427-0.108 0.435 0.385 0.435 0.385s0.289-0.654-0.238-0.878c-0.649-0.277-1.338 0.48-1.655 0.699-0.119 0.083-0.439 0.126-0.439 0.126s0.152-0.127 0.196-0.298c0.061-0.225 0.36-0.304 0.673-0.219-0.246-0.257-0.503-0.334-0.726-0.327-0.223 0.008-0.488 0.108-0.632 0.085-0.099-0.013-0.377-0.224-0.668-0.425-0.267-0.185-0.549-0.35-0.698-0.476-0.097-0.084-0.14-0.209-0.206-0.375-0.079-0.198-0.243-0.482-0.675-0.482h-1.741-1.61s-0.378 0.428-0.005 0.713c-0.07 0.152-0.154 0.455-0.009 0.542 0.217 0.128 0.271 0.205 0.341 0.328m0.082-1.583c-0.111 0.142-0.407 0.549-0.1 0.961-0.014 0.169-0.149 0.569 0.167 0.786 0.094 0.063 0.208 0.105 0.292 0.144 0.16 0.073 0.274 0.153 0.421 0.142 0.194-0.017 0.379-0.284 0.869-0.152 0.15 0.041 0.246 0.014 0.523-0.003 0.126-0.009 0.303 0.047 0.431 0.359 0.112 0.27 0.308 0.684 0.308 0.684m-0.655-1.436s-0.079-0.077-0.299-0.036c-0.243 0.047-0.275 0.056-0.423 0.018-0.149-0.038-0.278-0.032-0.439 0.061-0.179 0.104-0.412 0.036-0.583-0.049-0.171-0.086-0.33-0.298-0.223-0.634-0.403-0.302-0.051-0.845-0.051-0.845s0.104 0.399 0.485 0.339c0.313-0.049 0.299-0.309 0.684-0.339m4.951 4.653c0.103-0.093 0.263-0.384 0.166-0.61-0.173-0.406-0.427-0.225-0.427-0.225m-0.003 0.354c0.091-0.084 0.152-0.422-0.291-0.469m0.09 0.322s0.032-0.315-0.297-0.521c0.093 0.244 0.008 0.412 0.008 0.412m-0.348-0.777c0.086 0.229 0.006 0.385 0.006 0.385m-0.329-0.718c0.073 0.215-0.005 0.358-0.005 0.358m-0.334-0.686c0.076 0.215-0.003 0.358-0.003 0.358m-0.289-0.594c0.058 0.172-0.004 0.286-0.004 0.286m-0.317-0.237s0.072-0.319-0.049-0.477c-0.127 0.093-0.169 0.173-0.169 0.173s-0.039-0.369-0.103-0.5c-0.067 0.124-0.116 0.188-0.173 0.244 0.024-0.199 0.036-0.574-0.163-0.721-0.179-0.132-0.334-0.003-0.334-0.003m-0.132 1.933c-1.308-1.041-3.093 0.573-1.725 1.598-0.279-1.541 1.617-1.002 1.195-0.093-0.173-0.452-0.419-0.473-0.629-0.36-0.169 0.124-0.24 0.305-0.165 0.471 0.073-0.075 0.176-0.178 0.316-0.107 0.114 0.057 0.267 0.209-0.086 0.642-0.31 0.379-0.387 0.709-0.403 0.928-0.014 0.217 0.079 1.06 0.141 1.308 0.067 0.273 0.176 0.558 0.447 0.843 0.31 0.324 1.498 1.351 2.014 1.663 0.444 0.271 1.079 0.695 2.386 0.741 0.995 0.036 2.173 0.01 3.782-0.187m-1.712-0.927s-0.046-0.162-0.098-0.225m0.477 0.27s-0.036-0.128-0.077-0.178m0.439 0.213s-0.028-0.1-0.061-0.14m-1.022 0.053s-0.063-0.205-0.153-0.311m-0.24 0.358s0.007-0.287-0.137-0.456m-0.346 0.486c0.046-0.091 0.112-0.398-0.012-0.643-0.145 0.333-0.297 0.323-0.39 0.589-0.053-0.266 0.075-0.534-0.144-0.82-0.136 0.398-0.358 0.375-0.241 0.882-0.129-0.283-0.148-0.391-0.065-0.7 0.108-0.407-0.064-0.747-0.386-0.84 0.407 0.557-0.539 0.757-0.434 1.431-0.055 0.007-0.222-0.461 0-0.823 0.176-0.286 0.354-0.41 0.35-0.689-0.01-0.415-0.226-0.488-0.226-0.488m-0.434 0.935c0.048-0.177 0.139-0.313 0.225-0.455 0.136-0.229 0.281-0.467 0.195-0.838-0.113-0.489-0.444-0.528-0.444-0.528 0.09 0.178 0.088 0.574-0.267 0.818-0.143 0.097-0.512 0.182-0.592 0.52-0.064-0.483 0.78-0.948 0.852-1.617 0.059-0.551-0.165-0.818-0.165-0.818m-0.956 1.596s0.064-0.308 0.168-0.461c0.161-0.236 0.756-0.611 0.788-1.185 0.051-0.97-0.89-0.996-0.89-0.996 0.308 0.006 0.622 0.502-0.007 0.814-0.189 0.095-0.496 0.302-0.601 0.489m-0.246 0.646s0.111-0.426 0.387-0.932c0.274-0.506 0.477-0.965 0.489-1.298 0.014-0.345-0.078-0.93-0.596-1.149-0.898-0.381-1.084 0.458-1.057 0.582 0.085-0.086 0.273-0.239 0.541-0.182 0.475 0.102 0.358 0.655 0.28 0.92-0.011 0.038-0.014 0.11-0.007 0.139m14.802 2.448c0.072 0.054 0.142 0.115 0.207 0.184 0.207 0.218 0.401 0.822 0.21 1.218-0.265 0.552-0.686 0.457-0.837 0.362 0.307 0.002 0.526-0.679-0.04-0.925-0.249-0.108-1.044 0.058-1.044 0.058m0.88-2.417c0.109 0.047 0.204 0.087 0.25 0.117 0.224 0.15 0.468 0.383 0.506 0.894 0.032 0.427-0.198 0.649-0.514 0.786 0.041-0.144 0.128-0.387 0.112-0.52-0.063-0.523-0.767-0.562-0.767-0.562s0.159 0.341 0.386 0.447c0.06 0.027 0.208 0.085 0.382 0.183m-4.283-3.173s0.54 0.224 0.699 0.107c0.16-0.116 0.545-0.624 0.82-0.929 0.273-0.307 0.404-0.426 0.672-0.718-0.833-0.252-1.027 0.001-1.279 0.037-0.142 0.02-0.44-0.175-0.538-0.306-0.097-0.13-0.215-0.265-0.297-0.319-0.127-0.084-0.266-0.346-0.179-0.631-0.106-0.148-0.192-0.465 0.155-0.772l3.204 0.002s0.812-0.013 0.699 0.85c-0.015 0.115-0.325 2.845-0.336 3.014-0.027 0.385 0.359 0.517 0.411 1.011 0.051 0.483-0.317 0.711-0.317 0.711 0.038-0.171 0.058-0.686-0.531-0.973 0.099 0.142 0.137 0.225 0.197 0.398 0.029 0.088 0.173 0.173 0.334 0.249m-3.476-5.249s0.061 0.416 0.304 0.419c0.252 0.003 0.227-0.252 0.706-0.432m1.138 7.224c0.288 0.042 0.729 0.329 0.669 0.716-0.059 0.378-0.499 0.414-0.564 0.398 0.214-0.091 0.221-0.395 0.105-0.515-0.115-0.121-0.265-0.153-0.441-0.206-0.176-0.052-0.617-0.141-0.839-0.256-0.219-0.117-0.661-0.384-0.826-0.462-0.165-0.08-0.437-0.143-0.548-0.116-0.11 0.026-0.205 0.11-0.23 0.235-0.025 0.127-0.06 0.689-0.126 0.858-0.066 0.167-0.246 0.483-0.361 0.667 0 0-0.216 0.263-0.311 0.635-0.096 0.373-0.134 0.646-0.17 0.767-0.064 0.22-0.377 0.71-0.377 0.71m0.713-1.889s0.469-1.004 2.017-0.68c0.466 0.097 1.464 0.497 1.625 2.091 0.169 1.669-1.563 3.139-2.075 3.501-0.512 0.363-1.565 1.017-1.853 1.228-1.004 0.735-1.213 1.596-1.039 2.358 0.212 0.924 1.079 1.234 1.609 0.792 0.404-0.338 0.374-0.885 0.203-1.179-0.188-0.326-0.555-0.452-0.807-0.189 0.124-0.621 0.774-0.53 1.038-0.254m-0.406-0.216c-0.3-0.25-0.38-1.424 0.595-1.353-0.401 0.317-0.327 0.673-0.285 0.807m0.127-0.808c0.147-0.34 1.113-0.596 1.113 0.302-0.393-0.413-0.873 0.02-0.658 0.486m-0.101 1.995c-0.034-0.086-0.092-0.418 0.003-0.599 0.149-0.288 0.436-0.666 0.209-0.936-0.168-0.203-0.323-0.163-0.404-0.166-0.005-0.064 0.174-0.39 0.539-0.287 0.338 0.094 0.488 0.359 0.486 0.732-0.002 0.372-0.201 0.693-0.224 1m0.217-1.138c0.333 0.401 0.573 1.274-0.057 2.14-0.263 0.359-0.908 0.861-1.967 0.746-0.948-0.103-1.842-0.927-1.842-2.154 0-1.072 0.521-1.899 1.625-2.668 0.884-0.616 1.635-1.056 2.059-1.457 0.406-0.382 1.129-1.164 1.283-2.042 0.149-0.848-0.089-1.541-0.506-1.871-1.015-0.797-1.955-0.098-2.097 0.164-0.132 0.24-0.24 0.533-0.35 0.838s-0.349 0.656-0.418 0.782c0 0-0.485 0.898-0.704 1.413-0.256 0.601-2.05 4.281-2.05 4.281m-5.614-0.54c-1.237-0.866-1.842-1.098-2.326-1.448-0.296-0.214-0.359-0.347-0.609-0.677-0.233-0.308-0.377-0.4-0.514-0.58-0.132-0.171-0.244-0.573-0.042-0.785-0.187-0.253 0.09-0.537 0.22-0.505m0.605 1.681s-0.132-0.282-0.261-0.44c-0.128-0.157-0.347-0.422-0.359-0.583-0.015-0.17 0.04-0.315 0.144-0.441-0.09-0.089-0.323-0.517 0.164-0.79-0.059 0.217 0 0.323 0.2 0.411m0.439 1.696c-0.067-0.282-0.118-0.424-0.181-0.586-0.127-0.329-0.21-0.378-0.286-0.494-0.08-0.124-0.142-0.482 0.132-0.744-0.07-0.498 0.347-0.702 0.612-0.559-0.173 0.144-0.13 0.3-0.023 0.378 0.066 0.048 0.188 0.04 0.294 0.094 0.105 0.056 0.243 0.179 0.225 0.482-0.022 0.379 0.028 0.46 0.11 0.614 0.072 0.139 0.046 0.374 0.053 0.532s0.128 0.524 0.319 0.761m-0.32-0.806c0.079 0.119 0.11 0.264 0.76 0.576 0.573 0.276 1.086 0.557 1.411 0.702 0.308 0.136 0.6 0.303 0.789 0.077 0.148-0.177 0-0.44 0-0.44s0.527-0.095 0.508 0.645c0.209-0.491 0.858-0.756 1.09 0.021-0.527-0.298-0.583 0.167-0.592 0.259m0.472-0.525c0.248-0.259 0.95-0.285 0.828 0.402-0.054-0.056-0.181-0.157-0.322-0.097-0.249 0.109-0.001 0.535-0.039 0.934m-2.188-2.984s0.341-0.325 0.823-0.396c0.387-0.056 1.198-0.152 1.55-0.206 0.31-0.045 1.145-0.185 1.649-0.526 0.665-0.451 0.886-1.086 0.886-1.086m-5.313 3.978c0.154-0.412 0.734-1.152 0.419-1.737-0.175-0.331-0.442-0.38-0.442-0.38 0.07 0.181 0.154 0.336 0.079 0.621-0.057 0.208-0.318 0.324-0.395 0.545-0.034-0.225 0.049-0.418 0.22-0.87 0.337-0.892-0.127-1.336-0.551-1.377-0.327-0.024-0.52 0.144-0.607 0.431 0.234-0.144 0.474-0.064 0.615 0.09 0.213 0.234 0.151 0.61-0.013 0.856-0.349 0.519-0.607 0.849-0.468 1.265m-0.443-0.217s-0.038-0.291 0.09-0.473c0.085-0.119 0.279-0.355 0.339-0.465s0.055-0.364-0.227-0.413c0.437-0.309 0.678 0.145 0.709 0.303m11.763-6.582c0.068-0.02 0.424-0.112 0.278-0.705m-0.212 0.227c0.125-0.074 0.271-0.221 0.277-0.539m-0.235 0.119s0.234-0.077 0.296-0.22m-0.238-0.292s0.232-0.128 0.274-0.294m-0.201-0.186s0.204-0.097 0.26-0.273m-0.134-0.233s0.19-0.09 0.243-0.256m-0.13-0.224s0.182-0.086 0.233-0.244m-0.104-0.184s0.167-0.08 0.214-0.225m-8.156 17.849s0.539 0.13 0.75 0.125c0.125-0.003 0.127-0.022 0.149-0.099 0.019-0.068 0.037-0.536 0.571-0.669 0.069 0.057-0.194 0.264 0.03 0.408 0.037 0.023 0.125 0.003 0.208 0.052 0.063 0.036 0.091 0.125 0.151 0.172 0.041 0.033 0.116 0.049 0.153 0.068 0.181 0.088 0.138 0.344 0.078 0.513-0.043 0.121-0.142 0.462-0.142 0.462s-0.166-0.335-0.389-0.355c-0.117-0.011-0.298 0.057-0.502 0.064-0.155 0.003-0.37-0.159-0.54-0.238-0.236-0.11-0.252 0.111-0.188 0.228 0.124 0.227 0.244 0.301 0.375 0.505 0.145 0.226 0.165 0.428 0.486 0.635 0.133 0.084 0.47 0.236 0.697 0.236 0.137 0 0.072-0.33 0.039-0.459 0.439 0.142 0.916 0.926 0.608 1.274 0.122-0.063 0.276 0.228 0.155 0.398-0.106 0.149-0.298 0.286-0.513 0.394-0.265 0.133-0.878 0.247-1.017 0.285-0.14 0.039-0.136 0.108-0.231 0.183-0.095 0.077-0.324 0.105-0.609 0.1-0.235-0.002-0.472 0.039-0.77 0.131-0.226 0.069-0.653 0.027-0.844 0.023m0.173-0.225c-0.193 0.31-0.614 0.662-1.005 0.747-0.309 0.067-0.569 0.04-0.865 0.272-0.153-0.184-0.44-0.881 0.237-1.175m1.315-0.225c-0.133 0.015-0.394 0.025-0.6 0.339-0.171 0.259-0.311 0.385-0.495 0.458m3.933-1.306c-0.14-0.024-0.607-0.205-0.75-0.557-0.125-0.307-0.133-0.589-0.198-0.828-0.054-0.201-0.199-0.533-0.664-0.897m2.748 1.883s-0.136-0.018-0.173 0.118m-0.3 0.24 0.048-0.081m-0.364 0.13 0.058-0.078m-4.999 0.658c-0.345-0.076-0.944-0.626-1.367-0.792-0.397-0.156-0.7-0.017-0.788 0.184-0.046-0.06-0.119-0.241-0.067-0.413 0.076-0.255 0.452-0.378 0.723-0.303m-0.385 0.01c-0.484-0.203-0.768-1.186-1.059-1.35-0.238-0.132-0.429-0.058-0.512 0.067-0.213-0.585 0.447-0.589 0.625-0.487m-2.957 0.765c-0.129 0.135 0.276 0.761 0.654 0.728 0.118-0.009 0.356-0.394 0.109-0.734m-0.109 0.734s0.139 0.311 0.435 0.28c0.285-0.03 0.541-0.21 0.699-0.486 0.125-0.218 0.137-0.348 0.137-0.499 0-0.221-0.052-0.337 0.076-0.553 0.109-0.186 0.085-0.321 0.085-0.431 0-0.303 0.386-0.519 0.386-0.519m-1.271 1.055s-0.12-0.199-0.085-0.362c0.036-0.161 0.065-0.48 0.255-0.605 0.121-0.081 0.352-0.137 0.595-0.31m1 0.949s-0.473-0.456-0.629-1.118c-0.115-0.492-0.153-1.434-0.157-1.671-0.006-0.393-0.224-0.609-0.474-0.632-0.076-0.007-0.181 0.018-0.322 0.132 0.111-0.532 0.594-0.676 0.93-0.473m0.652 3.762s-0.163-0.314-0.052-0.811c0.099-0.441 0.33-0.909 0.212-1.184-0.138-0.315-0.413-0.247-0.485-0.166 0.064-0.199 0.179-0.411 0.47-0.444 0.285-0.032 0.609 0.255 0.636 0.736m-1.599-1.962s-0.145-0.145-0.053-0.475 0.267-0.546 0.187-0.733c-0.064-0.151-0.249-0.231-0.376-0.135 0.311-0.636 0.889-0.234 0.756 0.371m0.215 1.082c-0.043-0.189-0.186-1.461 0.887-1.358m-1.093-0.019c-0.036-0.578-0.96-1.043-1.105-0.161-0.07-0.963 0.894-1.235 1.43-0.885 0.687 0.449 0.352 1.181 0.326 1.399-0.033 0.266 0.105 0.372 0.161 0.736 0-0.174-0.013-0.528 0.131-0.842 0.094-0.208 0.395-0.617 0.928-0.385 0.333 0.145 0.434 0.352 0.473 0.498m2.551 7.161s-0.029-0.297-0.35-0.379c-0.546-0.139-0.623-0.481-0.51-0.777m0.994 0.506c-0.295-0.604-1.542-0.194-1.516-1.371 0.01-0.436 0.281-0.725 0.598-0.711m-0.944 3.912c-0.076-0.02-0.189-0.292-0.009-0.616 0.121-0.221 0.425-0.533 1.042-0.377-0.682-0.289-0.638-0.924-0.391-1.101-0.049 0.4 0.2 0.628 0.267 0.701m-1.122-2.65c-0.329-0.327-0.963-0.844-0.506-1.282 0.067-0.065 0.148-0.076 0.218-0.083-0.094-0.124-0.276-0.143-0.386-0.131-0.339 0.036-0.558 0.475-0.583 0.739-0.057 0.623 0.292 1.082 0.556 1.498-0.486-0.22-0.619-0.442-0.739-0.758m0.525 2.493c-0.494-0.141-1.011-0.997-0.502-1.38 0.089 0.358 0.182 0.552 0.49 0.726s0.662-0.008 1.081 0.517c-0.094-0.383-0.676-0.702-1.014-0.927-0.339-0.225-0.602-0.459-0.64-0.823-0.068-0.66 0.454-1.328 0-1.84-0.249-0.278-0.539-0.161-0.634-0.11 0.511 0.106 0.135 0.857 0.288 1.229m4.027 1.707c-0.076-0.24-0.252-0.336-0.788-0.5-0.313-0.096-0.609-0.426-0.226-0.87m1.303 1.144c-0.031-0.174-0.251-0.562-0.674-0.558-0.261 0.003-0.429 0.069-0.744 0.044m0.524-0.024c-0.117-0.072-0.703-0.605-0.258-1.207 0.343-0.467 1.032-0.327 1.261 0.067m1.147 1.213c-0.039-0.088-0.104-0.179-0.304-0.378-0.135-0.134-0.192-0.275-0.198-0.396m-0.939 0.329c-0.075-0.2-0.014-0.569 0.245-0.74 0.198-0.132 0.608-0.165 0.856 0.119 0.049-0.392-0.496-0.917-1.166-0.439m0.46 1.086c-0.047-0.112 0.028-0.41 0.284-0.439-0.405-0.386-0.776 0.108-0.679 0.413m0.178-0.689c-0.515-0.286-0.981 0.187-0.67 0.721m1.271-1.203s0.49-0.575 0.547-0.84m-1.034 0.781c0.022-0.299 0.206-0.728 0.593-0.67-0.129-0.431-0.451-0.283-0.653-0.087 0.174-0.223 0.987-0.78 1.146 0.185 0.434-0.36-0.057-1.351-0.982-1.049m-1.88 0.622c-0.818 0.995-0.102 1.991-0.046 2.096m0.103-1.549c-0.04-0.081-0.097-0.249-0.044-0.613 0.071-0.474 0.915-1.406 1.926-0.425-0.889-0.311-1.136 0.746-1.157 0.974m-0.754-0.618c0.141-0.563-0.343-1.301-0.904-0.862 0.111 0.045 0.345 0.192 0.274 0.474 0 0-0.05 0.384 0.049 0.437m-1.388 0.758s-0.078-0.339 0.01-0.707c0.071-0.299 0.017-0.796-0.08-1.095-0.099-0.295-0.352-0.82-0.3-1.126 0.118-0.712 0.776-0.499 0.876-0.323m-0.532 2.758c0.107-0.437 0.542-0.721 0.193-1.01 0.296 0.08 0.387 0.294 0.339 0.603m0.84-0.902c0-0.304-0.62-0.866-1.177-0.283-0.011 0.032 0.053 0.039 0.071 0.044 0.26 0.056 0.424 0.145 0.445 0.448 0.024 0.328-0.288 0.793-0.302 1.232m0.118-2.656c0.037-0.263 0.115-0.538 0.275-0.705 0.506-0.531 0.964 0.026 1.019 0.134-0.634-0.176-0.681 0.257-0.739 0.476m-0.653 0.85c-0.082-0.084-0.21-0.587 0.318-0.505-0.672-0.608-1.07 0.152-0.886 0.716m1.893 0.386c-0.054-0.295-0.028-0.822 0.414-1.108-0.036 0.419 0.244 0.894 0.244 0.894m0 0c-0.105-0.38-0.196-1.234 0.208-1.609 0.158-0.147 0.42-0.268 0.742-0.173-0.373 0.329-0.388 0.6-0.305 0.957m-1.499-1.16s0.593-0.37 0.787 0.243c-0.342-0.097-0.699 0.034-0.717 0.473-0.014 0.314 0.084 0.516 0.237 0.701m2.228-0.94c-0.11-0.293 0.165-0.844 0.695-0.489-0.335-1.058-1.436-0.403-1.552 0.188m0.57 2.33s0.224-0.304 0.224-0.778c0-0.32-0.039-1.015 0.395-1.231-0.689-0.245-0.739 0.747-0.739 0.747m0.344 0.484c-0.052-0.704 0.746-1.51 1.565-1.002-0.261 0.073-0.528 0.135-0.637 0.212-0.257 0.188-0.231 0.534-0.282 0.835 0.055-0.161 0.1-0.348 0.303-0.554 0.273-0.28 0.746-0.52 1.035-0.823 0.202-0.212 0.159-0.436 0.049-0.679 0.363 0.382 0.429 1.056-0.146 1.687-0.426 0.468-0.732 0.585-1.007 0.962m-0.039 0.515c0.12-0.406 0.782-0.92 1.058-0.251 0.336-0.506-0.23-0.891-0.518-0.759m7.265-15.419c-0.046-0.328 0.305-0.581 0.26-0.867-0.028-0.176-0.271-0.23-0.271-0.23m-10.927 20.688c0.032 0.485 0.114 0.666 0.273 0.895m-0.113-1.622c-0.14-0.568-0.49-0.302-0.406-1.032 0 0-0.452 0.252-0.33 0.669 0.085 0.292 0.472 0.376 0.581 0.726m-2.907-2.84c0.096-1.128-0.7-1.457-1.167-1.066 0.514 0.059 0.464 0.537 0.641 0.721m13.352-11.582c0.305-0.04 0.942-0.314 0.497-0.949" stroke="#000" stroke-linecap="round" stroke-width=".122" fill="none"/>
        </g>
        <g transform="translate(150.4624,367.3429)">
          <path d="m0 0c0.128-0.097 0.248-0.097 0.336-0.03 0.113 0.085 0.3 0.272 0.446 0.321 0.046 0.014 0.012 0.032-0.015 0.03-0.048-0.006-0.318-0.156-0.391-0.17-0.146-0.033-0.114 0.085-0.07 0.106 0.032 0.016 0.191 0.114 0.243 0.141 0.049 0.024 0.01 0.052-0.023 0.059-0.146 0.037-0.207 0.005-0.359-0.014-0.112-0.014-0.032 0.074 0.006 0.1 0.037 0.026 0.117 0.096 0.368 0.096 0.193 0 0.65-0.172 0.813-0.192 0.163-0.018 0.2 0.109 0.211 0.153 0.016 0.056 0.098 0.11 0.122-0.009 0.02-0.092-0.003-0.413-0.482-0.335 0.039-0.143 0.031-0.244 0-0.315 0.144-0.113 0.1-0.27-0.005-0.344-0.127-0.087-0.341-0.091-0.369-0.087-0.072 0.008-0.05 0.074-0.019 0.08 0.042 0.01 0.466 0.028 0.322 0.261-0.115-0.092-0.306-0.077-0.396-0.073-0.101 0.006-0.056 0.058-0.027 0.062 0.018 0.003 0.184 0.021 0.263 0.057 0.106 0.048 0.08 0.203-0.005 0.213-0.235 0.03-0.521-0.329-0.762-0.337-0.172-0.005-0.265 0.117-0.289 0.171-0.024 0.055-0.046 0.15 0.082 0.056"/>
        </g>
        <g transform="translate(142.1901,365.73)">
          <path stroke-linejoin="round" d="m0 0-0.012 0.027s-0.297 0.441 0.047 0.678c-0.038 0.067-0.12 0.265-0.003 0.389 0.119 0.126 0.203 0.086 0.472 0.079 0.269-0.008 0.34 0.053 0.459-0.018 0.117-0.068 0.182-0.161 0.182-0.161" stroke="#000" stroke-linecap="round" stroke-width=".122" fill="none"/>
        </g>
        <g transform="translate(143.4601,365.1763)">
          <path d="m0 0-0.228 0.603c-0.387-0.04-0.74-0.026-1.067 0.03m1.929-2.809 0.003 0.005c0.072 0.1 0.122 0.153 0.122 0.153l-0.4 1.062" stroke="#000" stroke-linecap="round" stroke-width=".226" fill="none"/>
        </g>
        <g transform="translate(144.628,362.6016)">
          <path stroke-linejoin="round" d="m0 0c-0.118 0.174-0.558 0.465-0.558 0.465m-29.902 1.1c-0.649 0.07-1.145 0.544-1.157 1.264-0.011 0.61 0.745 0.952 1.051 0.601-0.739 0.172-0.747-1.383 0.382-1.167 0.738 0.142 1.431 0.716 2.249 0.7 0.724-0.015 1.078-0.23 1.505-0.595-0.503 0.274-0.848 0.729-2.271-0.209-0.685-0.451-1.254-0.649-1.759-0.594zm3.305-8.544s-0.311-0.508-0.286-0.832c0.029-0.373 0.892-1.92 0.892-2.811 0 0 0.003-0.447 0.024-1.17 0.024-0.821 0.003-1.646-0.061-2.122-0.116-0.859-0.325-1.417-0.766-1.869-0.276-0.285-0.72-0.448-0.914-0.755-0.254-0.403 0.112-0.87 0.368-0.576 0.002-0.107-0.603-0.675-0.925-0.127m-0.692-0.573c0.15-0.5 0.6-0.833 1.12-0.809 0.72 0.034 1.472 0.884 1.075 1.494-0.641-1.303-1.886-0.204-1.453 0.349m-1.422 1.092c0.05 0.051 0.096 0.091 0.126 0.123 0.111 0.117 0.898 0.755 1.225 1.358-0.576-0.852-0.845-0.699-1.228-0.987-0.252-0.19-0.155-0.538 0.013-0.712-0.183-0.009-0.582 0.165-0.616 0.674-0.077 1.198 1.021 1.375 1.258 1.974-0.331-0.432-1.076-0.343-1.068-0.975-0.473 1.17 1.101 1.037 1.789 2.24-0.424-0.67-1.083-0.227-1.267-0.92-0.188 0.214-0.202 0.642 0.038 0.891 0.228 0.236 0.988 0.734 1.057 0.953-0.119-0.15-0.317-0.226-0.507-0.286-0.171-0.054-0.352-0.231-0.369-0.341-0.023 0.228 0.006 0.572 0.306 0.715 0.347 0.162 0.479 0.222 0.566 0.292 0.116 0.091 0.292 0.296 0.305 0.401-0.107-0.102-0.183-0.137-0.33-0.19-0.23-0.082-0.361-0.184-0.433-0.358 0 0-0.053 0.421 0.143 0.553 0.237 0.159 0.738 0.479 0.87 0.684m-1.388-6.779c-0.351-0.483-0.343-1.436 0.574-1.317-0.917-0.437-1.556 0.475-1.434 1.208 0.05 0.305 0.15 0.515 0.247 0.654m1.949 6.521s-0.189-0.074-0.269-0.211m0.295 0.645s-0.234-0.138-0.284-0.28m0.286 0.736c-0.105-0.059-0.186-0.12-0.308-0.328 0.098 0.303-0.03 0.389 0.138 0.576m-2.426-9.031s0.142-0.255 0.021-0.604c0.16-0.287 0.033-0.532-0.095-0.682m-1.707 1.25c0.192 0.103 0.515-0.065 0.702-0.04 0.08 0.01 0.309 0.114 0.406 0.073 0.099-0.042 0.383-0.152 0.217-0.572 0.102-0.181 0.187-0.324 0.147-0.581m6.391 3.154c-0.022-0.16-0.239-0.513-0.628-0.412-0.332 0.085-0.284 0.602-0.165 0.715 0.03-0.123 0.107-0.325 0.342-0.256 0.167 0.048 0.158 0.196 0.194 0.387 0.046 0.249 0.075 0.341 0.257 0.49 0.2 0.166 1.183 0.776 1.378 0.92 0.275 0.205 0.357 0.532 0.127 0.579-0.23 0.048-1.139 0.196-1.572 0.345-1.031 0.358-1.622 1.266-1.622 1.266m0.996-4.427c-0.022-0.251-0.116-0.747-0.5-0.838-0.292-0.07-0.531 0.162-0.461 0.446-0.246-0.268-0.258-0.887 0.3-1.101 0.594-0.229 1.092 0.178 1.092 0.178m0.842 0.857s-0.046-0.453-0.412-0.545c-0.428-0.108-0.435 0.385-0.435 0.385s-0.288-0.654 0.237-0.878c0.649-0.278 1.338 0.48 1.655 0.699 0.118 0.082 0.437 0.125 0.437 0.125s-0.152-0.126-0.196-0.298c-0.06-0.225-0.36-0.303-0.672-0.218 0.245-0.257 0.503-0.335 0.727-0.327 0.221 0.007 0.488 0.108 0.63 0.085 0.098-0.013 0.377-0.224 0.667-0.426 0.266-0.184 0.549-0.349 0.698-0.476 0.096-0.084 0.139-0.209 0.205-0.375 0.079-0.198 0.243-0.482 0.673-0.482h1.741 1.607s0.377 0.428 0.005 0.713c0.071 0.152 0.153 0.456 0.01 0.542-0.218 0.129-0.271 0.205-0.342 0.328m-0.082-1.583c0.112 0.142 0.407 0.549 0.1 0.961 0.015 0.169 0.149 0.569-0.166 0.786-0.092 0.063-0.208 0.106-0.292 0.144-0.16 0.073-0.273 0.154-0.42 0.142-0.194-0.017-0.38-0.283-0.869-0.151-0.15 0.04-0.245 0.013-0.521-0.003-0.126-0.009-0.304 0.047-0.432 0.358-0.111 0.271-0.308 0.685-0.308 0.685m0.654-1.436s0.08-0.078 0.3-0.037c0.242 0.048 0.274 0.057 0.423 0.018 0.148-0.038 0.276-0.032 0.438 0.062 0.178 0.103 0.411 0.035 0.582-0.05s0.329-0.297 0.223-0.634c0.403-0.302 0.049-0.845 0.049-0.845s-0.101 0.399-0.482 0.339c-0.312-0.049-0.299-0.309-0.685-0.339m-4.944 4.653c-0.102-0.093-0.263-0.383-0.166-0.609 0.174-0.406 0.427-0.226 0.427-0.226m0.003 0.354c-0.091-0.084-0.153-0.422 0.29-0.469m-0.089 0.323s-0.032-0.315 0.295-0.521c-0.092 0.243-0.007 0.411-0.007 0.411m0.348-0.777c-0.085 0.229-0.006 0.385-0.006 0.385m0.327-0.717c-0.073 0.215 0.006 0.358 0.006 0.358m0.333-0.686c-0.074 0.215 0.004 0.357 0.004 0.357m0.289-0.593c-0.059 0.171 0.003 0.286 0.003 0.286m0.318-0.237s-0.073-0.32 0.048-0.477c0.128 0.093 0.17 0.172 0.17 0.172s0.038-0.369 0.102-0.499c0.067 0.123 0.116 0.187 0.172 0.244-0.024-0.199-0.034-0.574 0.164-0.722 0.178-0.132 0.334-0.002 0.334-0.002m0.13 1.933c1.308-1.041 3.092 0.573 1.724 1.597 0.278-1.541-1.615-1.001-1.194-0.093 0.173-0.452 0.42-0.472 0.63-0.359 0.167 0.123 0.239 0.305 0.164 0.47-0.073-0.075-0.176-0.178-0.316-0.107-0.114 0.057-0.266 0.209 0.086 0.642 0.309 0.379 0.387 0.71 0.402 0.928 0.014 0.217-0.078 1.061-0.14 1.308-0.068 0.273-0.176 0.558-0.448 0.843-0.309 0.324-1.495 1.351-2.01 1.664-0.445 0.271-1.078 0.695-2.384 0.74-0.993 0.036-2.17 0.01-3.777-0.187m1.71-0.927s0.046-0.161 0.097-0.224m-0.476 0.269s0.036-0.128 0.076-0.177m-0.438 0.212s0.029-0.1 0.061-0.139m1.021 0.052s0.062-0.205 0.153-0.31m0.24 0.357s-0.007-0.287 0.136-0.456m0.347 0.486c-0.047-0.09-0.114-0.397 0.01-0.643 0.146 0.333 0.298 0.323 0.391 0.59 0.052-0.267-0.075-0.535 0.143-0.821 0.136 0.398 0.359 0.376 0.242 0.883 0.127-0.283 0.147-0.392 0.064-0.701-0.108-0.407 0.063-0.746 0.386-0.84-0.407 0.557 0.539 0.757 0.432 1.432 0.056 0.006 0.223-0.461 0-0.824-0.175-0.286-0.353-0.41-0.348-0.688 0.009-0.416 0.225-0.488 0.225-0.488m0.434 0.934c-0.049-0.177-0.14-0.312-0.225-0.454-0.136-0.23-0.281-0.468-0.194-0.839 0.112-0.488 0.443-0.528 0.443-0.528-0.091 0.179-0.088 0.575 0.267 0.819 0.142 0.097 0.511 0.182 0.591 0.52 0.064-0.483-0.78-0.948-0.852-1.617-0.058-0.551 0.166-0.819 0.166-0.819m0.955 1.596s-0.065-0.307-0.169-0.46c-0.161-0.237-0.755-0.612-0.786-1.186-0.05-0.97 0.889-0.995 0.889-0.995-0.309 0.005-0.622 0.502 0.006 0.814 0.189 0.094 0.496 0.301 0.6 0.489m0.246 0.646s-0.111-0.427-0.386-0.933c-0.274-0.505-0.476-0.964-0.49-1.298-0.012-0.345 0.079-0.93 0.597-1.148 0.898-0.381 1.082 0.457 1.055 0.581-0.085-0.086-0.272-0.239-0.539-0.181-0.476 0.102-0.359 0.655-0.281 0.919 0.012 0.038 0.014 0.111 0.007 0.139m-14.786 2.448c-0.07 0.054-0.14 0.116-0.205 0.184-0.207 0.218-0.401 0.822-0.211 1.218 0.265 0.552 0.685 0.457 0.838 0.362-0.307 0.003-0.526-0.679 0.04-0.925 0.248-0.108 1.041 0.058 1.041 0.058m-0.878-2.417c-0.108 0.047-0.203 0.087-0.25 0.117-0.224 0.15-0.466 0.384-0.505 0.895-0.033 0.427 0.198 0.649 0.514 0.786-0.041-0.145-0.13-0.388-0.112-0.521 0.063-0.522 0.766-0.562 0.766-0.562s-0.159 0.341-0.386 0.447c-0.06 0.027-0.208 0.086-0.382 0.184m4.278-3.174s-0.539 0.224-0.698 0.108c-0.16-0.117-0.545-0.625-0.819-0.93-0.273-0.306-0.404-0.425-0.671-0.717 0.832-0.252 1.026 0.001 1.277 0.036 0.143 0.021 0.441-0.174 0.537-0.305 0.098-0.131 0.216-0.266 0.297-0.32 0.128-0.084 0.266-0.345 0.18-0.63 0.105-0.149 0.191-0.466-0.156-0.772l-3.2 0.001s-0.812-0.012-0.698 0.85c0.015 0.116 0.324 2.845 0.336 3.014 0.027 0.386-0.36 0.518-0.412 1.011-0.05 0.483 0.317 0.711 0.317 0.711-0.037-0.171-0.057-0.686 0.532-0.973-0.1 0.142-0.137 0.225-0.197 0.399-0.03 0.087-0.173 0.172-0.335 0.249m3.474-5.25s-0.061 0.416-0.304 0.419c-0.253 0.003-0.228-0.252-0.707-0.431m-1.135 7.224c-0.29 0.042-0.73 0.328-0.668 0.716 0.058 0.377 0.498 0.413 0.562 0.397-0.213-0.091-0.22-0.394-0.105-0.515s0.265-0.152 0.44-0.205c0.176-0.052 0.616-0.141 0.838-0.256 0.221-0.117 0.661-0.385 0.827-0.463 0.164-0.079 0.435-0.142 0.546-0.115 0.11 0.026 0.205 0.11 0.23 0.235 0.025 0.126 0.06 0.689 0.126 0.857 0.065 0.168 0.245 0.484 0.36 0.667 0 0 0.215 0.263 0.311 0.635 0.095 0.374 0.134 0.647 0.17 0.768 0.064 0.219 0.376 0.709 0.376 0.709m-0.712-1.889s-0.468-1.004-2.013-0.68c-0.466 0.097-1.464 0.497-1.625 2.091-0.167 1.669 1.563 3.139 2.074 3.502 0.511 0.362 1.563 1.017 1.849 1.227 1.004 0.736 1.213 1.596 1.038 2.358-0.211 0.925-1.077 1.235-1.607 0.792-0.404-0.338-0.373-0.884-0.203-1.179 0.188-0.326 0.556-0.452 0.806-0.189-0.123-0.621-0.773-0.53-1.035-0.254m0.404-0.216c0.301-0.249 0.381-1.423-0.594-1.352 0.401 0.317 0.327 0.673 0.285 0.806m-0.126-0.807c-0.148-0.34-1.112-0.596-1.112 0.301 0.393-0.412 0.872 0.021 0.658 0.486m0.099 1.996c0.036-0.087 0.092-0.419-0.002-0.6-0.148-0.288-0.437-0.666-0.21-0.936 0.169-0.203 0.324-0.162 0.404-0.166 0.004-0.064-0.173-0.389-0.538-0.287-0.338 0.095-0.488 0.36-0.486 0.732 0.003 0.372 0.202 0.693 0.224 1m-0.217-1.138c-0.332 0.401-0.572 1.275 0.059 2.14 0.261 0.36 0.905 0.861 1.964 0.746 0.948-0.103 1.839-0.926 1.839-2.154 0-1.072-0.52-1.898-1.623-2.668-0.883-0.615-1.633-1.056-2.056-1.457-0.406-0.382-1.128-1.164-1.283-2.041-0.148-0.849 0.089-1.542 0.507-1.872 1.012-0.797 1.952-0.098 2.094 0.164 0.131 0.24 0.239 0.533 0.349 0.838 0.111 0.306 0.349 0.656 0.418 0.783 0 0 0.484 0.897 0.704 1.412 0.256 0.602 2.047 4.281 2.047 4.281m5.607-0.539c1.237-0.866 1.841-1.099 2.323-1.449 0.296-0.213 0.359-0.347 0.609-0.677 0.233-0.308 0.375-0.4 0.512-0.58 0.132-0.171 0.246-0.573 0.043-0.785 0.187-0.252-0.09-0.536-0.219-0.505m-0.604 1.681s0.132-0.282 0.26-0.439c0.128-0.158 0.346-0.423 0.359-0.584 0.014-0.17-0.039-0.314-0.145-0.441 0.09-0.089 0.322-0.517-0.163-0.789 0.058 0.217 0.001 0.322-0.2 0.41m-0.439 1.696c0.067-0.281 0.119-0.424 0.181-0.586 0.127-0.329 0.21-0.377 0.285-0.494 0.082-0.124 0.142-0.482-0.13-0.743 0.069-0.499-0.347-0.702-0.612-0.559 0.173 0.143 0.13 0.299 0.023 0.378-0.067 0.048-0.188 0.039-0.293 0.094s-0.243 0.179-0.226 0.481c0.022 0.379-0.027 0.46-0.109 0.614-0.073 0.139-0.045 0.374-0.054 0.533-0.007 0.157-0.127 0.524-0.317 0.76m0.318-0.806c-0.078 0.12-0.11 0.264-0.758 0.577-0.572 0.275-1.086 0.557-1.41 0.701-0.307 0.137-0.599 0.304-0.787 0.078-0.149-0.177 0-0.441 0-0.441s-0.528-0.095-0.509 0.646c-0.208-0.491-0.856-0.756-1.089 0.021 0.528-0.298 0.582 0.167 0.593 0.259m-0.473-0.525c-0.248-0.26-0.947-0.285-0.827 0.401 0.055-0.055 0.181-0.156 0.321-0.096 0.25 0.109 0.002 0.534 0.04 0.934m2.185-2.985s-0.338-0.325-0.822-0.396c-0.385-0.056-1.196-0.152-1.549-0.205-0.309-0.046-1.142-0.185-1.645-0.527-0.665-0.45-0.884-1.085-0.884-1.085m5.304 3.978c-0.153-0.412-0.732-1.153-0.419-1.737 0.178-0.332 0.442-0.381 0.442-0.381-0.068 0.181-0.152 0.336-0.077 0.621 0.055 0.209 0.319 0.324 0.393 0.545 0.035-0.225-0.049-0.418-0.22-0.87-0.335-0.892 0.128-1.335 0.552-1.376 0.326-0.025 0.52 0.144 0.606 0.431-0.234-0.145-0.474-0.065-0.615 0.089-0.213 0.235-0.151 0.61 0.014 0.856 0.348 0.519 0.605 0.85 0.467 1.265m0.442-0.217s0.038-0.291-0.09-0.472c-0.084-0.12-0.279-0.356-0.338-0.466-0.06-0.11-0.055-0.363 0.227-0.412-0.438-0.31-0.677 0.144-0.708 0.302m-11.75-6.581c-0.067-0.02-0.423-0.112-0.276-0.706m0.21 0.227c-0.125-0.073-0.271-0.221-0.277-0.539m0.236 0.12s-0.234-0.078-0.298-0.221m0.24-0.292s-0.232-0.128-0.274-0.294m0.2-0.186s-0.203-0.097-0.26-0.273m0.135-0.232s-0.191-0.091-0.243-0.256m0.13-0.224s-0.182-0.086-0.233-0.244m0.104-0.184s-0.168-0.081-0.215-0.226m8.149 17.849s-0.54 0.13-0.751 0.125c-0.124-0.003-0.127-0.022-0.149-0.099-0.018-0.068-0.036-0.536-0.57-0.668-0.069 0.056 0.194 0.263-0.031 0.407-0.036 0.023-0.124 0.003-0.207 0.052-0.062 0.036-0.09 0.126-0.149 0.172-0.043 0.033-0.117 0.049-0.154 0.068-0.181 0.088-0.138 0.344-0.078 0.513 0.043 0.121 0.142 0.463 0.142 0.463s0.167-0.335 0.389-0.356c0.117-0.011 0.298 0.057 0.501 0.064 0.154 0.003 0.369-0.159 0.539-0.237 0.237-0.111 0.253 0.11 0.188 0.227-0.123 0.227-0.243 0.302-0.374 0.506-0.145 0.225-0.166 0.427-0.487 0.635-0.131 0.083-0.467 0.236-0.696 0.236-0.136 0-0.072-0.331-0.038-0.46-0.438 0.143-0.916 0.927-0.608 1.275-0.121-0.063-0.275 0.227-0.154 0.398 0.106 0.149 0.298 0.286 0.513 0.394 0.264 0.132 0.876 0.246 1.016 0.284 0.139 0.039 0.133 0.108 0.23 0.183 0.095 0.077 0.323 0.105 0.609 0.1 0.234-0.002 0.47 0.039 0.769 0.131 0.226 0.069 0.651 0.027 0.842 0.023m-0.172-0.225c0.192 0.31 0.612 0.662 1.003 0.747 0.309 0.067 0.568 0.04 0.864 0.272 0.154-0.184 0.439-0.88-0.236-1.175m-1.313-0.224c0.131 0.014 0.392 0.024 0.597 0.338 0.172 0.259 0.312 0.385 0.495 0.458m-3.927-1.305c0.139-0.025 0.606-0.205 0.748-0.557 0.125-0.307 0.134-0.59 0.197-0.828 0.055-0.201 0.2-0.533 0.665-0.898m-2.746 1.884s0.136-0.019 0.173 0.118m0.3 0.24-0.048-0.081m0.364 0.13-0.058-0.078m4.993 0.658c0.345-0.077 0.943-0.627 1.365-0.792 0.398-0.157 0.699-0.017 0.788 0.183 0.046-0.059 0.119-0.24 0.068-0.412-0.078-0.255-0.453-0.379-0.724-0.303m0.384 0.01c0.485-0.204 0.767-1.187 1.058-1.35 0.239-0.133 0.428-0.059 0.512 0.067 0.212-0.586-0.447-0.59-0.623-0.488m2.952 0.766c0.129 0.135-0.276 0.761-0.653 0.728-0.118-0.01-0.357-0.394-0.109-0.735m0.109 0.735s-0.14 0.311-0.434 0.279c-0.285-0.029-0.54-0.209-0.7-0.486-0.123-0.217-0.134-0.347-0.134-0.498 0-0.222 0.049-0.337-0.078-0.554-0.108-0.186-0.084-0.32-0.084-0.431 0-0.303-0.385-0.519-0.385-0.519m1.268 1.056s0.121-0.2 0.086-0.363c-0.037-0.161-0.065-0.48-0.255-0.604-0.121-0.082-0.352-0.138-0.594-0.311m-0.999 0.949s0.472-0.456 0.628-1.117c0.115-0.493 0.152-1.434 0.156-1.671 0.007-0.393 0.224-0.61 0.473-0.633 0.078-0.007 0.183 0.018 0.323 0.133-0.111-0.533-0.594-0.676-0.929-0.473m-0.651 3.761s0.162-0.314 0.051-0.811c-0.098-0.441-0.33-0.908-0.21-1.183 0.136-0.315 0.412-0.247 0.482-0.167-0.062-0.199-0.177-0.41-0.468-0.444-0.285-0.032-0.607 0.256-0.636 0.736m1.598-1.962s0.144-0.145 0.053-0.475c-0.091-0.329-0.268-0.545-0.187-0.733 0.064-0.151 0.25-0.231 0.376-0.135-0.312-0.636-0.889-0.233-0.756 0.371m-0.214 1.082c0.043-0.188 0.185-1.461-0.886-1.358m1.091-0.019c0.037-0.577 0.959-1.042 1.104-0.16 0.069-0.963-0.893-1.235-1.427-0.886-0.687 0.45-0.353 1.181-0.327 1.399 0.032 0.266-0.104 0.372-0.16 0.736 0-0.174 0.013-0.528-0.13-0.842-0.096-0.208-0.397-0.616-0.928-0.384-0.333 0.144-0.434 0.351-0.472 0.498m-2.549 7.16s0.029-0.297 0.35-0.379c0.544-0.138 0.62-0.481 0.509-0.777m-0.994 0.507c0.296-0.604 1.542-0.194 1.515-1.371-0.01-0.437-0.28-0.725-0.596-0.712m0.942 3.912c0.076-0.02 0.189-0.292 0.009-0.616-0.122-0.22-0.425-0.532-1.04-0.377 0.68-0.289 0.637-0.923 0.389-1.1 0.05 0.399-0.199 0.627-0.266 0.7m1.12-2.65c0.329-0.327 0.963-0.844 0.506-1.281-0.067-0.065-0.148-0.076-0.218-0.083 0.095-0.124 0.276-0.143 0.386-0.132 0.339 0.036 0.558 0.476 0.582 0.739 0.056 0.623-0.291 1.082-0.555 1.499 0.485-0.221 0.618-0.443 0.739-0.759m-0.525 2.493c0.493-0.14 1.01-0.996 0.502-1.379-0.09 0.358-0.183 0.552-0.489 0.725-0.308 0.174-0.662-0.007-1.08 0.517 0.093-0.382 0.673-0.701 1.012-0.926 0.338-0.226 0.601-0.459 0.639-0.824 0.068-0.66-0.453-1.327 0-1.839 0.249-0.279 0.539-0.162 0.632-0.11-0.51 0.106-0.133 0.856-0.287 1.228m-4.022 1.707c0.076-0.24 0.251-0.336 0.787-0.5 0.313-0.096 0.608-0.425 0.226-0.87m-1.301 1.145c0.031-0.174 0.25-0.563 0.673-0.559 0.261 0.003 0.428 0.07 0.743 0.044m-0.523-0.024c0.116-0.072 0.702-0.605 0.257-1.207-0.343-0.467-1.031-0.327-1.259 0.067m-1.146 1.214c0.039-0.089 0.105-0.18 0.304-0.379 0.135-0.134 0.191-0.275 0.198-0.396m0.936 0.329c0.077-0.2 0.016-0.569-0.244-0.74-0.197-0.131-0.607-0.165-0.854 0.119-0.049-0.392 0.496-0.917 1.164-0.439m-0.458 1.086c0.047-0.111-0.029-0.41-0.285-0.439 0.404-0.385 0.775 0.108 0.677 0.413m-0.177-0.688c0.516-0.287 0.98 0.186 0.67 0.72m-1.27-1.203s-0.487-0.574-0.547-0.839m1.033 0.781c-0.022-0.3-0.206-0.728-0.592-0.671 0.129-0.431 0.45-0.282 0.653-0.086-0.173-0.223-0.987-0.78-1.146 0.185-0.433-0.36 0.06-1.352 0.983-1.05m1.876 0.623c0.817 0.994 0.102 1.99 0.047 2.095m-0.102-1.548c0.038-0.081 0.096-0.25 0.042-0.613-0.069-0.474-0.915-1.407-1.925-0.425 0.889-0.311 1.136 0.745 1.157 0.973m0.753-0.617c-0.141-0.563 0.344-1.301 0.904-0.862-0.112 0.045-0.345 0.192-0.274 0.473 0 0 0.05 0.384-0.049 0.438m1.386 0.757s0.079-0.338-0.008-0.706c-0.072-0.3-0.019-0.797 0.079-1.095 0.099-0.296 0.351-0.821 0.299-1.127-0.118-0.711-0.774-0.499-0.875-0.323m0.532 2.759c-0.107-0.438-0.542-0.722-0.193-1.01-0.297 0.079-0.387 0.294-0.339 0.603m-0.84-0.902c0-0.305 0.619-0.867 1.177-0.284 0.012 0.032-0.054 0.04-0.072 0.045-0.258 0.056-0.423 0.145-0.444 0.448-0.024 0.327 0.288 0.793 0.303 1.232m-0.119-2.656c-0.036-0.264-0.115-0.538-0.275-0.706-0.506-0.531-0.962 0.026-1.018 0.135 0.633-0.176 0.681 0.257 0.738 0.475m0.654 0.85c0.081-0.084 0.209-0.587-0.32-0.505 0.673-0.608 1.07 0.152 0.885 0.717m-1.889 0.386c0.053-0.295 0.027-0.822-0.414-1.109 0.036 0.42-0.243 0.895-0.243 0.895m0 0c0.103-0.381 0.195-1.235-0.209-1.61-0.157-0.147-0.419-0.268-0.741-0.172 0.372 0.329 0.388 0.599 0.304 0.956m1.498-1.159s-0.592-0.37-0.786 0.242c0.341-0.097 0.698 0.035 0.717 0.473 0.013 0.314-0.085 0.516-0.238 0.702m-2.225-0.941c0.11-0.293-0.165-0.843-0.693-0.489 0.334-1.058 1.434-0.403 1.549 0.188m-0.569 2.33s-0.225-0.304-0.225-0.778c0-0.319 0.041-1.015-0.393-1.231 0.687-0.245 0.738 0.748 0.738 0.748m-0.345 0.483c0.053-0.704-0.745-1.509-1.56-1.002 0.258 0.073 0.526 0.135 0.634 0.212 0.258 0.188 0.231 0.534 0.282 0.836-0.055-0.162-0.101-0.349-0.301-0.555-0.275-0.28-0.748-0.52-1.036-0.823-0.202-0.212-0.158-0.436-0.049-0.678-0.363 0.381-0.428 1.055 0.146 1.686 0.425 0.468 0.731 0.586 1.007 0.962m0.038 0.516c-0.12-0.406-0.782-0.92-1.057-0.252-0.335-0.505 0.23-0.891 0.517-0.759m-7.256-15.419c0.046-0.328-0.304-0.581-0.259-0.867 0.027-0.176 0.27-0.229 0.27-0.229m10.915 20.687c-0.034 0.486-0.114 0.666-0.273 0.896m0.113-1.623c0.139-0.568 0.489-0.302 0.405-1.031 0 0 0.452 0.252 0.33 0.668-0.086 0.292-0.472 0.376-0.58 0.726m2.903-2.84c-0.096-1.127 0.699-1.457 1.165-1.065-0.513 0.058-0.464 0.537-0.638 0.721m-13.339-11.582c-0.304-0.041-0.94-0.314-0.495-0.95" stroke="#000" stroke-linecap="round" stroke-width=".122" fill="none"/>
        </g>
        <g transform="translate(119.8412,367.3429)">
          <path d="m0 0c-0.126-0.097-0.249-0.097-0.336-0.03-0.113 0.085-0.3 0.272-0.447 0.321-0.045 0.014-0.012 0.032 0.016 0.03 0.049-0.006 0.318-0.156 0.391-0.17 0.146-0.033 0.114 0.085 0.069 0.106-0.032 0.016-0.19 0.114-0.241 0.141-0.05 0.024-0.011 0.052 0.022 0.059 0.148 0.037 0.206 0.005 0.359-0.014 0.112-0.014 0.032 0.074-0.006 0.1s-0.117 0.096-0.369 0.096c-0.191 0-0.649-0.172-0.812-0.192-0.164-0.018-0.199 0.109-0.211 0.153-0.015 0.056-0.098 0.11-0.122-0.009-0.019-0.092 0.002-0.413 0.483-0.335-0.039-0.143-0.033-0.244 0-0.315-0.145-0.113-0.102-0.27 0.003-0.344 0.128-0.087 0.341-0.091 0.371-0.087 0.07 0.008 0.049 0.074 0.018 0.08-0.042 0.01-0.465 0.028-0.322 0.261 0.115-0.092 0.306-0.077 0.397-0.073 0.098 0.006 0.055 0.058 0.026 0.062-0.017 0.003-0.184 0.021-0.263 0.057-0.105 0.048-0.079 0.203 0.005 0.213 0.234 0.03 0.521-0.329 0.762-0.337 0.172-0.005 0.265 0.117 0.29 0.171 0.023 0.055 0.045 0.15-0.083 0.056"/>
        </g>
        <g transform="translate(128.1128,365.73)">
          <path stroke-linejoin="round" d="m0 0 0.012 0.027s0.297 0.441-0.047 0.678c0.039 0.067 0.121 0.265 0.004 0.389-0.119 0.126-0.202 0.086-0.473 0.079-0.269-0.008-0.339 0.053-0.458-0.018-0.117-0.068-0.183-0.161-0.183-0.161" stroke="#000" stroke-linecap="round" stroke-width=".122" fill="none"/>
        </g>
        <g transform="translate(126.8434,365.1763)">
          <path d="m0 0 0.228 0.603c0.387-0.04 0.74-0.026 1.067 0.03m-1.929-2.809-0.003 0.005c-0.071 0.1-0.122 0.153-0.122 0.153l0.4 1.062" stroke="#000" stroke-linecap="round" stroke-width=".226" fill="none"/>
        </g>
        <g transform="translate(125.6768,362.5607)">
          <path stroke-linejoin="round" d="m0 0c0.126 0.194 0.603 0.519 0.603 0.519" stroke="#000" stroke-linecap="round" stroke-width=".122" fill="none"/>
        </g>
      </g>
    </g>
  </g>
</svg>
